<svg xmlns="http://www.w3.org/2000/svg" version="1.1" xmlns:xlink="http://www.w3.org/1999/xlink" xmlns:svgjs="http://svgjs.dev/svgjs" width="1500" height="1500" viewBox="0 0 1500 1500"><rect width="1500" height="1500" fill="#ffffff"></rect><g transform="matrix(0.6666666666666666,0,0,0.6666666666666666,249.39393939393938,438.5856950067477)"><svg viewBox="0 0 396 247" data-background-color="#ffffff" preserveAspectRatio="xMidYMid meet" height="935" width="1500" xmlns="http://www.w3.org/2000/svg" xmlns:xlink="http://www.w3.org/1999/xlink"><g id="tight-bounds" transform="matrix(1,0,0,1,0.2400000000000091,-0.09999999999999432)"><svg viewBox="0 0 395.52 247.2" height="247.2" width="395.52"><g><svg></svg></g><g><svg viewBox="0 0 395.52 247.2" height="247.2" width="395.52"><g transform="matrix(1,0,0,1,75.54432,62.01502247488387)"><svg viewBox="0 0 244.43135999999998 123.16995505023225" height="123.16995505023225" width="244.43135999999998"><g><svg viewBox="0 0 244.43135999999998 123.16995505023225" height="123.16995505023225" width="244.43135999999998"><g><svg viewBox="0 0 244.43135999999998 123.16995505023225" height="123.16995505023225" width="244.43135999999998"><g><svg viewBox="0 0 244.43135999999998 123.16995505023225" height="123.16995505023225" width="244.43135999999998"><g id="textblocktransform"><svg viewBox="0 0 244.43135999999998 123.16995505023225" height="123.16995505023225" width="244.43135999999998" id="textblock"><g><svg viewBox="0 0 244.43135999999998 83.82277798475867" height="83.82277798475867" width="244.43135999999998"><g transform="matrix(1,0,0,1,0,0)"><svg width="244.43135999999998" viewBox="-1 -40 118.09 40.5" height="83.82277798475867" data-palette-color="#264f0b"><path d="M11.05-35.75L11.05-37 11.05-35.75ZM36.95-37L46.4-37 46.4-35.75Q45.25-36.1 44.6-36.1L44.6-36.1Q43.05-36.1 42.75-35L42.75-35Q42.45-34 40.95-28.05L40.95-28.05Q34.55-2.8 34.45-2.35L34.45-2.35 33.85 0 30.9 0 23.15-26.95 16.9-2.45 16.95-2.35 16.8-2.05 16.3 0 13.4 0 3.6-34Q3.35-35 2.63-35.52 1.9-36.05 0.8-36.05L0.8-36.05Q-0.05-36.05-1-35.75L-1-35.75-1-37 11.05-37 11.05-35.75Q10.1-36.05 9.3-36.05L9.3-36.05Q8.5-36.05 8.05-35.7 7.6-35.35 7.6-34.7L7.6-34.7Q7.6-34.25 7.7-34L7.7-34 16.35-4.4 22.35-29.75 21.1-34Q20.8-35.05 20.38-35.55 19.95-36.05 19.1-36.05L19.1-36.05Q18.5-36.05 17.5-35.75L17.5-35.75 17.5-37 30.45-37 30.45-35.75Q29.45-36.05 28.35-36.05L28.35-36.05Q26.85-36.05 25.88-35.5 24.9-34.95 25.2-34L25.2-34 33.9-4.3 41-34Q41.1-34.3 41.1-34.75L41.1-34.75Q41.1-36.2 39.3-36.2L39.3-36.2Q38.2-36.2 36.95-35.75L36.95-35.75 36.95-37ZM48.5 0.5Q45.7 0.5 43.8-1.23 41.9-2.95 41.9-6.15L41.9-6.15Q41.9-8.45 43.45-10.08 45-11.7 46.85-12.3L46.85-12.3Q47.8-12.6 49.07-12.88 50.35-13.15 50.8-13.25L50.8-13.25Q53.3-13.75 54.55-14.18 55.8-14.6 56.05-15.35L56.05-15.35Q56.05-18.95 54.67-21.35 53.3-23.75 50.1-23.75L50.1-23.75Q48.1-23.75 47.12-22.33 46.15-20.9 46.15-18.5L46.15-18.5Q46.15-17.85 46.4-17.57 46.65-17.3 47.55-17.3L47.55-17.3Q48.1-17.3 48.5-17.55 48.9-17.8 48.9-18.15L48.9-18.15 49.35-18.15 49.35-16.8 42.8-16.8Q42.8-18.6 43.85-20.38 44.9-22.15 46.75-23.28 48.6-24.4 50.85-24.4L50.85-24.4Q53.85-24.4 55.67-23.03 57.5-21.65 58.27-19.73 59.05-17.8 59.05-15.9L59.05-15.9 59.05-5.05Q59.05-1.3 60.65-1.3L60.65-1.3Q61.15-1.3 61.57-1.98 62-2.65 62-3.35L62-3.35 62.5-3.35Q62.5-1.5 61.37-0.5 60.25 0.5 58.8 0.5L58.8 0.5Q57.1 0.5 56.57-1 56.05-2.5 56.05-5.2L56.05-5.2 56.05-7.5Q56.05-6.8 55.37-4.85 54.7-2.9 53-1.2 51.3 0.5 48.5 0.5L48.5 0.5ZM49.65-0.9Q51.35-0.9 52.8-2.25 54.25-3.6 55.1-5.45 55.95-7.3 55.95-8.55L55.95-8.55 55.95-14.25Q55.95-14.1 55.45-13.95 54.95-13.8 54.2-13.65L54.2-13.65Q50.95-12.8 49.45-12.25L49.45-12.25Q47.1-11.4 46-9.88 44.9-8.35 44.9-6.45L44.9-6.45Q44.9-4.25 46.12-2.58 47.35-0.9 49.65-0.9L49.65-0.9ZM81.5-6.05Q83.65-2.85 84.67-1.73 85.7-0.6 86.9-0.6L86.9-0.6Q87.35-0.6 87.85-0.75L87.85-0.75 87.85 0 77.9 0 77.9-0.75Q78.6-0.6 79.05-0.6L79.05-0.6Q79.8-0.6 80.17-0.9 80.55-1.2 80.55-1.6L80.55-1.6Q80.55-2.05 80.35-2.3L80.35-2.3 75.15-9.9 71.95-14.6 70-12.75 70-3Q70-1.7 70.22-1.1 70.45-0.5 71.25-0.5L71.25-0.5Q71.65-0.5 72.5-0.75L72.5-0.75 72.5 0 64.5 0 64.5-0.75Q65.35-0.5 65.75-0.5L65.75-0.5Q66.65-0.5 66.9-1.13 67.15-1.75 67.15-3L67.15-3 67.15-37.25Q66.65-37.1 66-37.1L66-37.1Q65.3-37.1 64.5-37.25L64.5-37.25 64.5-38.6 64.95-38.6Q64.95-38.3 65.47-38.02 66-37.75 66.5-37.75L66.5-37.75Q67.65-37.75 68.45-38.38 69.25-39 69.25-40L69.25-40 70.05-40 70-13.65 73.3-16.7Q76-19.1 77.45-20.55L77.45-20.55Q78.2-21.3 78.2-21.9L78.2-21.9Q78.2-22.35 77.82-22.6 77.45-22.85 76.8-22.85L76.8-22.85Q76.25-22.85 75.35-22.6L75.35-22.6 75.35-23.35 83.85-23.35 83.85-22.6Q83-22.85 82.45-22.85L82.45-22.85Q81.3-22.85 80.35-22.23 79.4-21.6 78.2-20.4L78.2-20.4Q76.8-19 74.4-16.8L74.4-16.8 81.5-6.05ZM91.24-26.6Q90.34-26.6 89.74-27.15 89.14-27.7 89.14-28.55L89.14-28.55Q89.14-29.4 89.74-29.95 90.34-30.5 91.24-30.5L91.24-30.5Q92.14-30.5 92.77-29.93 93.39-29.35 93.39-28.55L93.39-28.55Q93.39-27.7 92.79-27.15 92.19-26.6 91.24-26.6L91.24-26.6ZM86.84-0.75Q87.69-0.5 88.09-0.5L88.09-0.5Q88.99-0.5 89.24-1.13 89.49-1.75 89.49-3L89.49-3 89.49-20.8Q88.74-20.55 87.89-20.55L87.89-20.55Q87.54-20.55 86.84-20.65L86.84-20.65 86.84-22 87.29-22Q87.29-21.65 87.67-21.4 88.04-21.15 88.54-21.15L88.54-21.15Q89.24-21.15 89.79-21.7 90.34-22.25 91.14-23.4L91.14-23.4 92.59-23.4 92.59-3Q92.59-1.7 92.82-1.1 93.04-0.5 93.84-0.5L93.84-0.5Q94.24-0.5 95.09-0.75L95.09-0.75 95.09 0 86.84 0 86.84-0.75ZM97.59-0.75Q98.44-0.5 98.84-0.5L98.84-0.5Q99.74-0.5 99.99-1.13 100.24-1.75 100.24-3L100.24-3 100.24-37.25Q99.74-37.1 99.09-37.1L99.09-37.1Q98.39-37.1 97.59-37.25L97.59-37.25 97.59-38.6 98.04-38.6Q98.04-38.3 98.57-38.02 99.09-37.75 99.59-37.75L99.59-37.75Q100.74-37.75 101.59-38.38 102.44-39 102.44-40L102.44-40 103.39-40 103.34-3Q103.34-1.7 103.57-1.1 103.79-0.5 104.59-0.5L104.59-0.5Q104.99-0.5 105.84-0.75L105.84-0.75 105.84 0 97.59 0 97.59-0.75ZM113.24-26.6Q112.34-26.6 111.74-27.15 111.14-27.7 111.14-28.55L111.14-28.55Q111.14-29.4 111.74-29.95 112.34-30.5 113.24-30.5L113.24-30.5Q114.14-30.5 114.76-29.93 115.39-29.35 115.39-28.55L115.39-28.55Q115.39-27.7 114.79-27.15 114.19-26.6 113.24-26.6L113.24-26.6ZM108.84-0.75Q109.69-0.5 110.09-0.5L110.09-0.5Q110.99-0.5 111.24-1.13 111.49-1.75 111.49-3L111.49-3 111.49-20.8Q110.74-20.55 109.89-20.55L109.89-20.55Q109.54-20.55 108.84-20.65L108.84-20.65 108.84-22 109.29-22Q109.29-21.65 109.66-21.4 110.04-21.15 110.54-21.15L110.54-21.15Q111.24-21.15 111.79-21.7 112.34-22.25 113.14-23.4L113.14-23.4 114.59-23.4 114.59-3Q114.59-1.7 114.81-1.1 115.04-0.5 115.84-0.5L115.84-0.5Q116.24-0.5 117.09-0.75L117.09-0.75 117.09 0 108.84 0 108.84-0.75Z" opacity="1" transform="matrix(1,0,0,1,0,0)" fill="#264f0b" class="wordmark-text-0" data-fill-palette-color="primary" id="text-0"></path></svg></g></svg></g><g transform="matrix(1,0,0,1,0,103.61132412028856)"><svg viewBox="0 0 244.43135999999998 19.558630929943682" height="19.558630929943682" width="244.43135999999998"><g transform="matrix(1,0,0,1,0,0)"><svg width="244.43135999999998" viewBox="0.49 -37.55 501.8 40.156666666666666" height="19.558630929943682" data-palette-color="#264f0b"><path d="M17.87-5.62L17.87-5.62Q17.77-5.32 17.77-5.08L17.77-5.08Q17.77-4.79 17.85-4.49 17.92-4.2 17.92-3.91L17.92-3.91Q17.82-3.03 17.77-2.83L17.77-2.83Q17.48-2.59 16.58-2.27 15.67-1.95 14.43-1.64 13.18-1.32 11.74-1 10.3-0.68 8.98-0.39 7.67-0.1 6.57 0.12 5.47 0.34 4.93 0.44L4.93 0.44Q4.69 0.49 4.47 0.56 4.25 0.63 4 0.73L4 0.73Q3.76 0.78 3.52 0.76 3.27 0.73 3.03 0.83L3.03 0.83Q2.88 0.83 2.76 0.68 2.64 0.54 2.54 0.44L2.54 0.44Q2.54 0.15 2.44 0 2.34-0.15 2.22-0.24 2.1-0.34 2-0.46 1.9-0.59 1.9-0.88L1.9-0.88Q1.81-1.27 1.64-1.49 1.46-1.71 1.46-1.9L1.46-1.9Q1.27-2.54 1.27-3.03L1.27-3.03Q1.27-3.27 1.32-3.42 1.37-3.56 1.46-3.71L1.46-3.71Q1.76-3.81 1.9-3.96 2.05-4.1 2.29-4.2L2.29-4.2Q2.59-4.35 3.13-4.47 3.66-4.59 4.3-4.74 4.93-4.88 5.52-5.03 6.1-5.18 6.49-5.32L6.49-5.32Q6.64-5.37 6.79-5.37 6.93-5.37 7.03-5.47L7.03-5.47Q6.93-6.25 6.91-7.03 6.88-7.81 6.79-8.54L6.79-8.54Q6.79-8.89 6.74-9.23 6.69-9.57 6.69-9.86L6.69-9.86 6.74-10.89Q6.74-12.74 6.59-14.6 6.45-16.46 6.45-18.31L6.45-18.31 6.45-19.97Q6.45-20.36 6.42-20.7 6.4-21.04 6.4-21.44L6.4-21.44Q6.4-22.36 6.42-23.22 6.45-24.07 6.45-25L6.45-25 6.45-29.49Q5.37-29.74 4.44-29.47 3.52-29.2 2.54-29.1L2.54-29.1Q2.2-29.44 2.15-29.83L2.15-29.83Q1.76-30.37 1.61-30.52 1.46-30.66 1.27-31.35L1.27-31.35Q0.93-32.03 0.71-32.2 0.49-32.37 0.49-32.76L0.49-32.76Q0.49-33.01 0.61-33.11 0.73-33.2 0.83-33.45L0.83-33.45Q1.27-33.64 1.34-33.72 1.42-33.79 1.51-33.84L1.51-33.84Q2-34.18 2.64-34.33 3.27-34.47 3.86-34.67L3.86-34.67Q4.35-34.81 4.79-35.01 5.22-35.21 5.76-35.35L5.76-35.35Q6.4-35.55 7.03-35.74 7.67-35.94 8.25-36.08L8.25-36.08Q8.64-36.18 9.01-36.16 9.38-36.13 9.77-36.38L9.77-36.38Q10.4-36.28 11.11-36.4 11.82-36.52 12.65-36.72 13.48-36.91 14.26-37.06 15.04-37.21 15.43-37.3L15.43-37.3Q15.67-37.21 15.77-37.06 15.87-36.91 16.06-36.87L16.06-36.87Q16.11-36.72 16.16-36.5 16.21-36.28 16.36-36.18L16.36-36.18Q16.36-35.64 16.6-35.4L16.6-35.4Q16.55-34.91 16.77-34.3 16.99-33.69 16.99-33.15L16.99-33.15Q16.75-32.42 16.19-32.23 15.63-32.03 14.97-31.88 14.31-31.74 13.67-31.62 13.04-31.49 12.65-31.35L12.65-31.35Q12.65-30.66 12.67-29.93 12.7-29.2 12.7-28.47L12.7-28.47Q12.7-27.78 12.67-27.1 12.65-26.42 12.65-25.73L12.65-25.73Q12.65-24.71 12.62-23.63 12.6-22.56 12.6-21.48L12.6-21.48Q12.6-19.97 12.65-18.46 12.7-16.94 12.79-15.43L12.79-15.43Q12.84-15.19 12.84-14.7L12.84-14.7Q12.84-12.74 12.92-10.86 12.99-8.98 13.18-6.98L13.18-6.98Q13.82-6.93 14.16-7.18L14.16-7.18Q14.4-7.18 14.62-7.28 14.84-7.37 15.04-7.47L15.04-7.47Q15.33-7.52 15.84-7.64 16.36-7.76 16.5-7.76L16.5-7.76Q16.94-7.71 17.04-7.76L17.04-7.76Q17.19-7.47 17.48-7.32L17.48-7.32Q17.58-6.88 17.65-6.47 17.72-6.05 17.87-5.62ZM38.62-36.43L38.62-36.43Q39.4-36.52 39.82-36.3 40.23-36.08 40.67-36.04L40.67-36.04Q40.92-35.99 41.19-36.01 41.46-36.04 41.75-36.04L41.75-36.04Q42.38-36.04 42.75-35.89 43.12-35.74 43.51-35.25L43.51-35.25Q43.6-35.16 43.77-34.99 43.95-34.81 43.95-34.67L43.95-34.67Q43.95-34.28 43.75-33.98 43.55-33.69 43.55-33.15L43.55-33.15Q43.55-32.32 43.75-31.52 43.95-30.71 43.99-29.88L43.99-29.88Q44.24-26.86 44.26-23.8 44.29-20.75 44.29-17.77L44.29-17.77Q44.29-17.38 44.26-17.07 44.24-16.75 44.04-16.5L44.04-16.5 44.04-15.87Q43.99-14.6 44.09-13.31 44.19-12.01 44.19-10.74L44.19-10.74Q44.19-9.62 44.07-8.5 43.95-7.37 43.95-6.2L43.95-6.2Q43.95-5.13 44.09-4.1 44.24-3.08 44.24-2L44.24-2Q43.99-1.56 43.95-1.32 43.9-1.07 43.75-0.88L43.75-0.88Q43.6-0.78 43.43-0.83 43.26-0.88 43.16-0.73L43.16-0.73Q42.92-0.44 42.82-0.05 42.72 0.34 42.33 0.59L42.33 0.59Q42.24 1.27 41.82 1.64 41.41 2 41.21 2.59L41.21 2.59Q40.63 2.64 40.41 2.54 40.19 2.44 39.94 2.34L39.94 2.34Q39.89 1.51 39.97 1.15 40.04 0.78 40.04 0.39L40.04 0.39Q40.04-0.1 39.79-0.34 39.55-0.59 39.45-0.98L39.45-0.98Q38.92-1.32 38.72-1.44 38.53-1.56 38.38-1.76L38.38-1.76Q38.09-2.15 37.89-2.59 37.7-3.03 37.45-3.42L37.45-3.42Q36.77-4.54 36.06-5.71 35.35-6.88 34.52-8.01L34.52-8.01Q34.38-8.25 34.18-8.45 33.98-8.64 33.84-8.89L33.84-8.89Q33.01-10.21 32.28-11.57 31.54-12.94 30.57-14.16L30.57-14.16Q30.18-14.65 29.98-15.26 29.79-15.87 29.39-16.31L29.39-16.31Q29.35-16.06 29.35-15.77 29.35-15.48 29.35-15.23L29.35-15.23Q29.35-13.57 29.42-11.94 29.49-10.3 29.49-8.64L29.49-8.64Q29.49-8.3 29.42-8.03 29.35-7.76 29.35-7.42L29.35-7.42Q29.35-6.93 29.39-6.49 29.44-6.05 29.44-5.62L29.44-5.62Q29.44-5.08 29.42-4.59 29.39-4.1 29.35-3.61L29.35-3.61Q29.25-2.98 29.1-2.42 28.96-1.86 28.96-1.27L28.96-1.27Q28.96-0.93 29.03-0.63 29.1-0.34 29.1-0.1L29.1-0.1Q28.76 0.44 28.25 0.44 27.73 0.44 27.39 0.83L27.39 0.83Q27.1 0.78 26.93 0.88 26.76 0.98 26.61 0.98L26.61 0.98Q26.42 0.98 26.29 0.93 26.17 0.88 26.03 0.88L26.03 0.88Q25.78 0.88 25.54 1.12 25.29 1.37 25.05 1.37L25.05 1.37Q24.9 1.37 24.54 1.17 24.17 0.98 23.75 0.71 23.34 0.44 23 0.17 22.66-0.1 22.66-0.24L22.66-0.24Q22.61-0.49 22.61-0.93L22.61-0.93Q22.61-1.51 22.68-2.08 22.75-2.64 22.85-3.22L22.85-3.22Q23-4.88 23-6.52 23-8.15 23-9.81L23-9.81Q23-10.5 23.02-11.18 23.05-11.87 23.05-12.55L23.05-12.55Q23.05-14.16 22.92-15.8 22.8-17.43 22.8-19.04L22.8-19.04Q22.8-20.17 22.9-21.26 23-22.36 23-23.44L23-23.44Q23-24.27 22.95-25.05 22.9-25.83 22.9-26.66L22.9-26.66Q22.85-27.2 22.9-27.81 22.95-28.42 22.95-28.96L22.95-28.96Q22.95-29.59 22.78-30.15 22.61-30.71 22.61-31.2L22.61-31.2Q22.61-31.49 22.73-31.76 22.85-32.03 22.85-32.32L22.85-32.32Q22.85-32.71 22.73-33.11 22.61-33.5 22.61-33.89L22.61-33.89Q22.61-34.28 22.71-34.62 22.8-34.96 22.8-35.35L22.8-35.35Q23.49-35.69 24.02-35.69L24.02-35.69Q24.56-35.69 24.8-35.3L24.8-35.3Q24.8-34.42 24.9-33.96 25-33.5 25.05-33.01L25.05-33.01Q25.05-32.71 25.02-32.32 25-31.93 25.05-31.57 25.1-31.2 25.27-30.96 25.44-30.71 25.88-30.71L25.88-30.71Q25.98-30.47 26.12-30.27 26.27-30.08 26.32-29.79L26.32-29.79Q26.61-29.98 26.66-30.32 26.71-30.66 26.66-30.96L26.66-30.96Q26.9-30.86 27.1-30.88 27.29-30.91 27.49-30.81L27.49-30.81Q27.59-30.13 27.73-29.61 27.88-29.1 27.83-28.42L27.83-28.42Q28.81-27.69 29.52-26.34 30.22-25 30.86-23.93L30.86-23.93Q31.2-23.39 31.67-22.92 32.13-22.46 32.37-21.83L32.37-21.83Q32.76-21.58 33.01-21.19 33.25-20.8 33.45-20.41L33.45-20.41Q34.42-18.7 35.6-17.09 36.77-15.48 38.04-13.92L38.04-13.92Q38.09-14.26 38.09-14.58 38.09-14.89 38.09-15.23L38.09-15.23 38.04-19.63Q38.04-20.02 38.01-20.36 37.99-20.7 37.94-21.09L37.94-21.09Q37.84-22.36 37.89-23.58 37.94-24.8 37.89-26.07L37.89-26.07Q37.79-27.39 37.77-28.76 37.74-30.13 37.65-31.49L37.65-31.49Q37.6-32.32 37.55-33.15 37.5-33.98 37.5-34.81L37.5-34.81Q37.5-35.84 37.7-36.67L37.7-36.67Q37.79-36.77 37.92-36.84 38.04-36.91 38.23-36.91L38.23-36.91Q38.53-36.91 38.62-36.43ZM70.17-34.91L70.17-34.91Q70.07-34.72 70.09-34.52 70.12-34.33 70.12-34.08L70.12-34.08Q70.02-33.5 70.12-33.5 70.21-33.5 70.21-33.4L70.21-33.4 69.87-32.91Q69.87-32.62 69.75-32.37 69.63-32.13 69.68-31.79L69.68-31.79Q69.53-31.54 69.41-31.3 69.29-31.05 69.04-30.81L69.04-30.81 68.41-30.81Q67.87-30.81 67.26-30.74 66.65-30.66 66.06-30.66L66.06-30.66Q65.97-30.66 65.82-30.69 65.67-30.71 65.53-30.71L65.53-30.71Q65.43-30.71 65.28-30.69 65.14-30.66 64.94-30.66L64.94-30.66Q64.21-30.66 63.5-30.74 62.79-30.81 62.01-30.81L62.01-30.81Q61.82-30.81 61.62-30.81 61.43-30.81 61.18-30.76L61.18-30.76Q61.13-29.93 61.11-29.08 61.08-28.22 61.08-27.34L61.08-27.34Q61.08-27.1 61.04-26.83 60.99-26.56 60.99-26.32L60.99-26.32Q60.94-25.68 60.91-25.1 60.89-24.51 60.89-23.88L60.89-23.88Q60.89-22.51 60.91-21.14 60.94-19.78 60.99-18.36L60.99-18.36Q61.04-17.63 61.08-16.94 61.13-16.26 61.13-15.53L61.13-15.53Q61.13-13.87 61.08-12.23 61.04-10.6 61.04-8.94L61.04-8.94Q61.04-8.4 60.99-7.93 60.94-7.47 60.94-6.93L60.94-6.93Q60.94-5.81 60.99-4.69 61.04-3.56 61.04-2.44L61.04-2.44Q61.04-1.9 61.01-1.37 60.99-0.83 60.99-0.29L60.99-0.29Q60.74 0.1 60.64 0.39 60.55 0.68 60.06 0.68L60.06 0.68Q59.72 0.59 59.74 0.46 59.77 0.34 59.67 0.24L59.67 0.24Q59.23 0.2 59.01 0.32 58.79 0.44 58.5 0.54L58.5 0.54Q58.35 0.49 58.18 0.49 58.01 0.49 57.86 0.49L57.86 0.49Q57.76 0.49 57.67 0.56 57.57 0.63 57.23 0.63L57.23 0.63Q56.93 0.68 56.88 0.54 56.84 0.39 56.59 0.39L56.59 0.39Q56.35 0.54 56.03 0.61 55.71 0.68 55.42 0.68L55.42 0.68Q55.13 0.49 55.15 0.32 55.18 0.15 55.08-0.05L55.08-0.05Q55.03-0.15 54.91-0.32 54.79-0.49 54.69-0.59L54.69-0.59Q54.79-1.27 54.83-1.81 54.88-2.34 54.88-2.98L54.88-2.98Q54.88-4.25 54.79-5.47 54.69-6.69 54.69-7.96L54.69-7.96Q54.69-8.35 54.79-8.79 54.88-9.23 54.88-9.72L54.88-9.72Q54.79-10.11 54.83-10.18 54.88-10.25 54.88-10.35L54.88-10.35Q54.88-10.64 54.86-10.94 54.83-11.23 54.83-11.52L54.83-11.52Q54.83-12.11 54.86-12.7 54.88-13.28 54.88-13.87L54.88-13.87Q54.88-14.11 54.86-14.38 54.83-14.65 54.83-14.89L54.83-14.89Q54.79-15.33 54.81-15.82 54.83-16.31 54.83-16.8L54.83-16.8Q54.83-19.14 54.76-21.44 54.69-23.73 54.69-26.07L54.69-26.07Q54.69-27.25 54.81-28.39 54.93-29.54 54.93-30.71L54.93-30.71Q54.93-30.86 54.83-31.1 54.74-31.35 54.64-31.45L54.64-31.45Q54.39-31.45 54.17-31.47 53.96-31.49 53.71-31.49L53.71-31.49Q53.17-31.49 52.69-31.35L52.69-31.35Q51.76-31.3 50.9-31.23 50.05-31.15 49.17-31.1L49.17-31.1Q48.58-31.15 48.46-31.13 48.34-31.1 48.19-31.1L48.19-31.1Q47.8-31.1 47.61-31.3L47.61-31.3 47.61-31.93Q47.31-32.52 47.36-32.57 47.41-32.62 47.41-32.71L47.41-32.71Q47.41-32.86 47.14-33.03 46.88-33.2 46.88-33.59L46.88-33.59Q46.83-33.98 46.68-34.18 46.53-34.38 46.53-34.57L46.53-34.57Q46.53-34.91 46.68-35.35L46.68-35.35Q47.12-35.6 47.53-35.69 47.95-35.79 48.49-35.94L48.49-35.94Q48.78-36.04 49.02-36.13 49.27-36.23 49.56-36.28L49.56-36.28Q49.9-36.33 50.24-36.33 50.59-36.33 50.93-36.38L50.93-36.38Q51.66-36.52 52.47-36.62 53.27-36.72 54-36.72L54-36.72Q54.69-36.72 55.37-36.55 56.05-36.38 56.59-36.38L56.59-36.38Q57.37-36.38 58.08-36.28 58.79-36.18 59.57-36.18L59.57-36.18Q59.67-36.18 59.89-36.11 60.11-36.04 60.4-36.04L60.4-36.04 65.14-36.04Q65.53-35.94 65.7-35.99 65.87-36.04 66.02-36.04L66.02-36.04Q66.41-36.04 66.75-35.99 67.09-35.94 67.48-35.94L67.48-35.94Q67.82-35.94 68.02-35.99L68.02-35.99Q68.41-35.94 68.75-35.77 69.09-35.6 69.53-35.6L69.53-35.6Q69.73-35.45 69.82-35.23 69.92-35.01 70.17-34.91ZM79.88-12.79L79.88-12.79Q79.98-12.55 80.59-11.77 81.2-10.99 81.98-10.06 82.76-9.13 83.47-8.28 84.18-7.42 84.47-7.03L84.47-7.03Q85.01-6.35 85.52-5.69 86.04-5.03 86.47-4.3L86.47-4.3 87.35-2.83Q87.74-2.34 88.06-2 88.38-1.66 88.57-1.07L88.57-1.07Q88.67-0.68 88.67-0.54L88.67-0.54Q88.67-0.2 88.43-0.05L88.43-0.05Q88.04-0.05 88.01 0.07 87.99 0.2 87.79 0.29L87.79 0.29Q87.6 0.39 87.18 0.42 86.77 0.44 86.52 0.44L86.52 0.44Q86.08 0.44 85.42 0.42 84.77 0.39 84.38 0.54L84.38 0.54Q84.28 0.59 84.08 0.68 83.89 0.78 83.79 0.78L83.79 0.78Q83.4 0.78 83.23 0.66 83.06 0.54 82.76 0.49L82.76 0.49Q82.37 0.05 82.1-0.42 81.84-0.88 81.49-1.37L81.49-1.37Q81.15-1.71 80.81-1.98 80.47-2.25 80.22-2.59L80.22-2.59Q79.49-3.66 78.71-4.69 77.93-5.71 77.1-6.69L77.1-6.69Q76.71-7.23 76.27-7.67 75.83-8.11 75.44-8.64L75.44-8.64Q75.05-9.13 74.71-9.69 74.37-10.25 74.02-10.79L74.02-10.79Q73.73-11.23 73.24-11.94 72.75-12.65 72.17-13.35 71.58-14.06 71-14.7 70.41-15.33 70.02-15.67L70.02-15.67Q69.97-15.97 69.78-16.14 69.58-16.31 69.34-16.46L69.34-16.46Q69.24-16.7 69.12-16.92 68.99-17.14 68.99-17.38L68.99-17.38Q68.99-17.72 69.14-18.02L69.14-18.02Q69.24-18.21 69.26-18.38 69.29-18.55 69.38-18.75L69.38-18.75Q69.63-19.29 70.04-19.8 70.46-20.31 70.7-20.9L70.7-20.9Q70.8-21.04 70.8-21.22 70.8-21.39 70.9-21.53L70.9-21.53Q71-21.92 71.31-22.19 71.63-22.46 71.83-22.8L71.83-22.8Q72.07-23.19 72.29-23.61 72.51-24.02 72.75-24.51L72.75-24.51Q73.49-25.73 74.29-26.88 75.1-28.03 75.93-29.2L75.93-29.2Q76.56-30.18 77.17-31.08 77.78-31.98 78.42-32.91L78.42-32.91Q78.76-33.35 79.15-33.94 79.54-34.52 80-35.11 80.47-35.69 80.96-36.18 81.45-36.67 81.93-36.96L81.93-36.96Q82.67-37.01 82.91-36.65 83.15-36.28 83.64-36.28L83.64-36.28Q84.28-36.13 84.47-35.89 84.67-35.64 84.91-35.4L84.91-35.4Q85.6-35.4 86.01-35.16 86.43-34.91 86.82-34.42L86.82-34.42Q86.67-33.89 86.38-33.47 86.08-33.06 85.84-32.62L85.84-32.62Q85.45-32.42 85.28-32.08 85.11-31.74 84.77-31.54L84.77-31.54Q84.28-30.71 83.74-29.96 83.2-29.2 82.67-28.47L82.67-28.47Q82.37-28.03 82.06-27.69 81.74-27.34 81.49-26.95L81.49-26.95Q81.4-26.81 81.32-26.64 81.25-26.46 81.15-26.32L81.15-26.32Q80.57-25.39 79.88-24.58 79.2-23.78 78.61-22.8L78.61-22.8Q78.42-22.46 78.3-22.09 78.17-21.73 77.98-21.39L77.98-21.39Q77.78-21.09 77.42-20.61 77.05-20.12 76.71-19.56 76.37-18.99 76.1-18.48 75.83-17.97 75.83-17.63L75.83-17.63Q75.88-17.38 76.44-16.67 77-15.97 77.71-15.16 78.42-14.36 79.05-13.65 79.69-12.94 79.88-12.79ZM83.11-21.68L83.11-21.68Q83.45-20.95 83.84-20.41L83.84-20.41Q83.98-20.21 84.18-20.07 84.38-19.92 84.47-19.68L84.47-19.68Q84.57-19.58 84.67-19.26 84.77-18.95 84.86-18.8L84.86-18.8Q85.01-18.41 85.45-17.92 85.89-17.43 85.89-17.04L85.89-17.04Q85.89-16.8 85.79-16.5 85.69-16.21 85.64-15.97L85.64-15.97Q85.6-15.67 85.6-15.36 85.6-15.04 85.4-14.79L85.4-14.79Q85.16-14.55 84.86-14.5 84.57-14.45 84.33-14.26L84.33-14.26Q84.23-14.16 84.03-13.92 83.84-13.67 83.64-13.38 83.45-13.09 83.28-12.82 83.11-12.55 83.11-12.4L83.11-12.4Q82.52-12.35 82.35-12.38 82.18-12.4 81.98-12.35L81.98-12.35Q81.74-12.6 81.47-12.77 81.2-12.94 80.81-13.09L80.81-13.09Q80.71-13.48 80.37-13.99 80.03-14.5 79.79-14.84L79.79-14.84 79.44-15.28Q78.71-16.31 78.1-17.26 77.49-18.21 77.2-19.38L77.2-19.38Q78.13-20.07 78.64-20.41 79.15-20.75 79.74-21.04 80.32-21.34 80.88-21.61 81.45-21.88 81.93-22.27L81.93-22.27Q82.32-22.27 82.47-22.22 82.62-22.17 82.67-22.12 82.71-22.07 82.79-21.95 82.86-21.83 83.11-21.68ZM113.38-4.69L113.38-4.69Q113.33-3.96 113.7-3.59 114.06-3.22 114.31-2.69L114.31-2.69Q114.21-2 114.45-1.61L114.45-1.61Q114.31-1.32 114.16-0.95 114.01-0.59 113.72-0.34L113.72-0.34Q112.94 0 112.79 0.24 112.65 0.49 112.21 0.49L112.21 0.49Q111.96 0.73 111.67 1 111.38 1.27 111.13 1.51L111.13 1.51Q110.89 1.42 110.79 1.27 110.69 1.12 110.5 0.88L110.5 0.88Q110.01 0.73 109.62 0.37 109.23 0 108.94-0.46 108.64-0.93 108.37-1.44 108.11-1.95 107.91-2.39L107.91-2.39Q107.23-3.66 106.52-4.96 105.81-6.25 105.08-7.52L105.08-7.52Q104.69-8.15 104.32-8.81 103.96-9.47 103.56-10.16L103.56-10.16Q103.47-10.25 103.37-10.38 103.27-10.5 103.17-10.64L103.17-10.64Q102.83-11.13 102.66-11.74 102.49-12.35 101.95-12.74L101.95-12.74Q101.03-12.84 100.27-12.48 99.51-12.11 98.93-11.52L98.93-11.52Q98.97-11.18 98.97-10.89 98.97-10.6 98.97-10.3L98.97-10.3Q98.97-9.18 98.88-8.15 98.78-7.13 98.78-6.01L98.78-6.01Q98.78-5.52 98.83-5 98.88-4.49 98.97-4L98.97-4Q98.83-3.47 98.83-2.83L98.83-2.83Q98.83-2.49 98.9-2.2 98.97-1.9 98.97-1.56L98.97-1.56Q98.97-1.07 98.66-0.9 98.34-0.73 98.44-0.29L98.44-0.29Q97.85-0.05 97.31 0.2 96.78 0.44 96.19 0.54L96.19 0.54Q95.95 0.59 95.7 0.56 95.46 0.54 95.26 0.63L95.26 0.63Q95.02 0.73 94.87 1 94.73 1.27 94.48 1.27L94.48 1.27Q94.19 1.27 94.14 1.05 94.09 0.83 93.95 0.68L93.95 0.68Q93.7 0.59 93.55 0.59 93.41 0.59 93.26 0.44L93.26 0.44Q93.31 0 93.07-0.22 92.82-0.44 92.82-1.12L92.82-1.12Q92.82-1.66 92.9-2.15 92.97-2.64 92.97-3.17L92.97-3.17Q92.97-3.61 92.85-3.98 92.72-4.35 92.63-4.79L92.63-4.79Q92.58-4.98 92.63-5.18 92.68-5.37 92.68-5.57L92.68-5.57Q92.68-6.45 92.6-7.35 92.53-8.25 92.53-9.13L92.53-9.13Q92.53-9.47 92.53-9.77 92.53-10.06 92.58-10.35L92.58-10.35Q92.68-10.64 92.75-10.84 92.82-11.04 92.82-11.33L92.82-11.33Q92.82-12.26 92.63-13.16 92.43-14.06 92.43-14.94L92.43-14.94Q92.43-15.43 92.46-15.94 92.48-16.46 92.48-16.94L92.48-16.94Q92.48-18.36 92.43-19.73 92.38-21.09 92.38-22.46L92.38-22.46Q92.38-23.44 92.43-24.39 92.48-25.34 92.48-26.32L92.48-26.32Q92.48-27.54 92.38-28.74 92.29-29.93 92.29-31.2L92.29-31.2Q92.29-31.64 92.24-31.79 92.19-31.93 92.09-31.96 91.99-31.98 91.87-32.01 91.75-32.03 91.65-32.18L91.65-32.18Q91.65-32.47 91.89-32.59 92.14-32.71 92.14-33.4L92.14-33.4Q92.14-33.79 92.07-34.18 91.99-34.57 91.99-34.96L91.99-34.96Q91.99-35.55 92.24-36.13 92.48-36.72 92.68-37.26L92.68-37.26Q93.26-37.3 93.48-37.26 93.7-37.21 93.95-37.3L93.95-37.3Q94.09-36.77 94.58-36.74 95.07-36.72 95.46-36.62L95.46-36.62Q95.9-36.57 96.31-36.4 96.73-36.23 97.12-36.23L97.12-36.23Q97.22-35.94 97.53-35.82 97.85-35.69 98.19-35.6L98.19-35.6Q98.58-35.64 98.8-35.94 99.02-36.23 99.41-36.23L99.41-36.23Q99.71-36.23 100.1-35.82 100.49-35.4 100.68-35.16L100.68-35.16Q100.88-35.01 101.42-34.52 101.95-34.03 102.59-33.52 103.22-33.01 103.76-32.54 104.3-32.08 104.44-32.03L104.44-32.03Q106.45-30.03 108.18-28.39 109.91-26.76 111.96-25.44L111.96-25.44Q112.01-25.29 112.08-25.2 112.16-25.1 112.26-24.95L112.26-24.95Q112.26-24.56 112.11-24.37 111.96-24.17 111.96-23.88L111.96-23.88Q111.96-23.73 112.04-23.58 112.11-23.44 112.11-23.29L112.11-23.29Q112.16-23.1 112.13-22.92 112.11-22.75 112.11-22.56L112.11-22.56Q112.11-22.07 112.43-21.68 112.74-21.29 112.74-20.8L112.74-20.8Q112.65-20.36 112.35-20.26 112.06-20.17 111.87-20.02L111.87-20.02Q111.77-19.92 111.69-19.78 111.62-19.63 111.52-19.53L111.52-19.53Q110.45-19.04 109.96-18.63 109.47-18.21 108.94-17.82L108.94-17.82Q108.79-17.72 108.45-17.5 108.11-17.29 107.76-17.07 107.42-16.85 107.15-16.6 106.88-16.36 106.88-16.21L106.88-16.21Q106.88-15.87 107.3-15.26 107.71-14.65 107.91-14.31L107.91-14.31Q108.45-13.43 108.89-12.57 109.33-11.72 109.86-10.89L109.86-10.89Q110.84-9.38 111.69-7.81 112.55-6.25 113.38-4.69ZM105.42-22.85L105.42-22.85Q104.3-24.27 103-25.42 101.71-26.56 100.54-27.83L100.54-27.83 100-27.93Q99.71-28.42 99.34-28.78 98.97-29.15 98.58-29.54L98.58-29.54Q98.63-29 98.63-28.52 98.63-28.03 98.63-27.49L98.63-27.49Q98.63-25.93 98.56-24.44 98.49-22.95 98.49-21.44L98.49-21.44Q98.49-19.92 98.63-18.55L98.63-18.55Q99.66-18.55 100.49-19.14L100.49-19.14Q100.83-19.38 101.12-19.65 101.42-19.92 101.76-20.17L101.76-20.17Q102.15-20.41 102.66-20.75 103.17-21.09 103.69-21.44 104.2-21.78 104.66-22.14 105.13-22.51 105.42-22.85ZM151.12-0.15L151.12-0.15Q150.88 0.1 150.59 0.15 150.29 0.2 150 0.2L150 0.2Q149.27 0.54 148.44 0.54L148.44 0.54Q147.9 0.24 147.85 0.34 147.8 0.44 147.66 0.54L147.66 0.54Q146.92 0.88 146.34 0.9 145.75 0.93 145.36 1.17L145.36 1.17Q144.97 0.88 144.95 0.32 144.92-0.24 144.82-0.63L144.82-0.63Q144.58-0.98 144.48-1.49 144.38-2 144.34-2.54 144.29-3.08 144.21-3.59 144.14-4.1 143.95-4.49L143.95-4.49Q143.9-4.74 143.92-4.93 143.95-5.13 143.85-5.37L143.85-5.37Q143.9-6.2 143.8-6.69 143.7-7.18 143.6-7.71L143.6-7.71Q143.55-8.01 143.55-8.37 143.55-8.74 143.26-8.94L143.26-8.94Q143.41-9.62 143.31-9.96 143.21-10.3 143.16-10.6L143.16-10.6Q143.12-10.99 143.12-11.45 143.12-11.91 143.02-12.3L143.02-12.3Q142.72-14.65 142.38-16.99 142.04-19.34 141.75-21.68L141.75-21.68Q141.46-21.44 141.33-20.95 141.21-20.46 141.11-20.07L141.11-20.07Q140.82-19.19 140.58-18.26 140.33-17.33 140.09-16.46L140.09-16.46Q139.99-16.06 139.92-15.55 139.84-15.04 139.7-14.65L139.7-14.65Q139.21-13.23 138.84-12.21 138.48-11.18 138.13-10.11L138.13-10.11Q138.04-9.52 137.94-8.98 137.84-8.45 137.74-7.91L137.74-7.91Q137.7-7.62 137.6-7.08 137.5-6.54 137.4-6.3L137.4-6.3Q137.3-6.05 137.23-5.96 137.16-5.86 137.21-5.62L137.21-5.62Q136.72-4.88 136.55-4 136.38-3.13 135.94-2.29L135.94-2.29Q135.94-1.71 135.5-1.27L135.5-1.27Q135.25-1.22 135.03-1.17 134.81-1.12 134.57-0.98L134.57-0.98Q134.33-1.07 134.01-1.1 133.69-1.12 133.4-1.12L133.4-1.12Q133.15-1.17 132.96-1.29 132.76-1.42 132.52-1.46L132.52-1.46Q132.28-1.76 131.98-1.98 131.69-2.2 131.4-2.44L131.4-2.44Q131.1-3.17 130.86-3.42L130.86-3.42Q130.71-3.96 130.47-4.42 130.22-4.88 130.13-5.47L130.13-5.47Q129.98-6.01 129.76-6.47 129.54-6.93 129.3-7.47L129.3-7.47Q129.2-7.81 129.08-8.13 128.96-8.45 128.81-8.79L128.81-8.79Q128.76-9.18 128.54-9.77 128.32-10.35 128.22-10.79L128.22-10.79Q128.22-10.84 128.05-11.3 127.88-11.77 127.71-12.3 127.54-12.84 127.37-13.28 127.2-13.72 127.15-13.77L127.15-13.77Q127.05-14.01 126.98-14.23 126.9-14.45 126.81-14.75L126.81-14.75Q126.61-15.38 126.32-16.04 126.03-16.7 125.73-17.29L125.73-17.29Q125.49-17.77 125.39-18.24 125.29-18.7 125.15-19.14L125.15-19.14Q125.05-19.38 124.98-19.58 124.9-19.78 124.8-20.02L124.8-20.02Q124.71-20.31 124.61-20.63 124.51-20.95 124.41-21.29L124.41-21.29Q124.17-21.19 124.19-20.87 124.22-20.56 124.17-20.31L124.17-20.31Q124.07-19.78 124.07-19.26 124.07-18.75 124.02-18.21L124.02-18.21Q123.93-17.63 123.83-17.09 123.73-16.55 123.68-16.02L123.68-16.02Q123.68-14.7 123.54-13.38L123.54-13.38Q123.44-12.21 123.29-11.01 123.14-9.81 123.1-8.54L123.1-8.54Q123.1-7.62 122.9-6.71 122.71-5.81 122.8-4.83L122.8-4.83Q122.71-4.64 122.71-4.54 122.71-4.44 122.71-4.25L122.71-4.25Q122.71-4 122.68-3.71 122.66-3.42 122.66-3.17L122.66-3.17Q122.66-2.73 122.75-2.59L122.75-2.59Q122.61-2.15 122.61-1.64 122.61-1.12 122.61-0.63L122.61-0.63Q122.51-0.44 122.49-0.24 122.46-0.05 122.31 0.15L122.31 0.15Q122.36 0.98 121.83 0.98L121.83 0.98Q121.68 0.98 121.51 0.9 121.34 0.83 121.24 0.68L121.24 0.68Q120.7 0.73 120.63 0.44 120.56 0.15 120.31 0.2L120.31 0.2Q119.73 0.44 119.65 0.34 119.58 0.24 119.34 0.29L119.34 0.29Q118.95-0.1 118.82-0.05 118.7 0 118.6 0L118.6 0Q118.16-0.15 118.12-0.07 118.07 0 117.92 0L117.92 0Q117.68-0.24 117.26-0.24 116.85-0.24 116.55-0.29L116.55-0.29Q116.5-0.49 116.48-0.66 116.46-0.83 116.46-1.07L116.46-1.07Q116.46-1.37 116.48-1.64 116.5-1.9 116.5-2.2L116.5-2.2Q116.5-2.44 116.48-2.71 116.46-2.98 116.46-3.32L116.46-3.32Q116.46-3.66 116.5-3.98 116.55-4.3 116.55-4.69L116.55-4.69Q116.55-4.83 116.5-4.96 116.46-5.08 116.46-5.27L116.46-5.27Q116.75-5.91 116.72-6.27 116.7-6.64 116.75-6.98L116.75-6.98Q116.85-7.81 116.92-8.62 116.99-9.42 117.09-10.25L117.09-10.25Q117.09-11.62 117.16-12.52 117.24-13.43 117.38-14.36L117.38-14.36Q117.48-14.79 117.55-15.19 117.63-15.58 117.72-16.02L117.72-16.02Q117.82-16.75 117.85-17.55 117.87-18.36 117.97-19.14L117.97-19.14Q118.07-20.36 118.21-21.56 118.36-22.75 118.46-23.93L118.46-23.93Q118.55-24.85 118.68-25.76 118.8-26.66 118.8-27.49L118.8-27.49Q118.8-27.93 118.92-28.61 119.04-29.3 119.09-29.79L119.09-29.79Q119.19-30.96 119.26-32.08 119.34-33.2 119.34-34.33L119.34-34.33 119.34-34.86Q119.34-34.96 119.43-35.06 119.53-35.16 119.53-35.4L119.53-35.4Q119.53-35.84 119.75-36.01 119.97-36.18 120.12-36.57L120.12-36.57Q120.36-36.57 120.68-36.52 121-36.47 121.14-36.23L121.14-36.23Q121.48-36.33 121.83-36.33 122.17-36.33 122.41-36.57L122.41-36.57Q122.71-36.57 122.85-36.43 123-36.28 123.24-36.18L123.24-36.18Q123.44-36.28 123.63-36.35 123.83-36.43 124.02-36.52L124.02-36.52Q124.17-36.43 124.24-36.3 124.32-36.18 124.46-36.13L124.46-36.13Q125.2-36.33 125.44-36.18L125.44-36.18Q125.54-35.99 125.56-35.79 125.59-35.6 125.63-35.4L125.63-35.4Q126.12-34.91 126.27-34.3 126.42-33.69 126.81-33.2L126.81-33.2Q126.9-32.91 127.03-32.62 127.15-32.32 127.25-31.93L127.25-31.93 127.39-31.35Q127.59-30.86 127.88-30.18L127.88-30.18Q128.13-29.25 128.32-28.27 128.52-27.29 128.96-26.46L128.96-26.46Q129-26.17 129.13-25.76 129.25-25.34 129.35-25.05L129.35-25.05Q129.69-24.22 130.05-23.41 130.42-22.61 130.71-21.68L130.71-21.68Q131.01-20.75 131.23-19.78 131.45-18.8 131.79-17.87L131.79-17.87Q132.08-16.99 132.23-16.6 132.37-16.21 132.62-15.82L132.62-15.82Q132.62-15.67 132.69-15.33 132.76-14.99 132.91-14.62 133.06-14.26 133.2-13.94 133.35-13.62 133.5-13.57L133.5-13.57Q133.64-13.67 133.67-13.87 133.69-14.06 133.84-14.21L133.84-14.21Q133.89-14.75 134.01-15.53 134.13-16.31 134.38-16.8L134.38-16.8Q134.38-17.04 134.5-17.7 134.62-18.36 134.81-19.12 135.01-19.87 135.18-20.51 135.35-21.14 135.5-21.29L135.5-21.29Q135.6-21.92 135.67-22.07 135.74-22.22 135.84-22.31L135.84-22.31Q135.89-22.71 136.04-23.05 136.18-23.39 136.23-23.78L136.23-23.78Q136.33-24.61 136.47-25.15 136.62-25.68 136.87-26.46L136.87-26.46Q137.06-27.15 137.23-27.86 137.4-28.56 137.65-29.25L137.65-29.25Q138.23-31.1 138.7-32.54 139.16-33.98 139.84-35.35L139.84-35.35Q139.99-35.79 140.09-35.89 140.19-35.99 140.28-36.08L140.28-36.08Q140.67-36.23 141.09-36.23 141.5-36.23 141.94-36.18L141.94-36.18Q142.43-36.38 142.68-36.62L142.68-36.62Q142.87-36.38 143.26-36.38L143.26-36.38Q143.75-36.38 143.95-36.67L143.95-36.67Q144.14-36.57 144.26-36.62 144.38-36.67 144.63-36.57L144.63-36.57Q144.73-36.67 144.87-36.79 145.02-36.91 145.17-36.91L145.17-36.91Q145.56-36.43 145.78-36.16 146-35.89 146.09-35.55L146.09-35.55Q146.24-35.11 146.26-34.59 146.29-34.08 146.53-33.64L146.53-33.64Q146.48-33.01 146.61-31.71 146.73-30.42 146.9-28.98 147.07-27.54 147.27-26.32 147.46-25.1 147.61-24.8L147.61-24.8Q147.56-24.17 147.66-23.73 147.75-23.29 147.75-22.85L147.75-22.85Q147.75-22.71 147.8-22.24 147.85-21.78 147.9-21.26 147.95-20.75 148.02-20.29 148.1-19.82 148.14-19.63L148.14-19.63Q148.14-18.75 148.44-18.26L148.44-18.26Q148.68-17.04 148.85-15.82 149.02-14.6 149.17-13.33L149.17-13.33Q149.27-12.7 149.29-12.11 149.32-11.52 149.41-10.89L149.41-10.89Q149.46-10.64 149.54-10.4 149.61-10.16 149.66-9.91L149.66-9.91Q149.76-9.42 149.8-8.98 149.85-8.54 149.95-8.11L149.95-8.11Q150-7.86 150.1-7.59 150.2-7.32 150.1-7.03L150.1-7.03Q150.2-6.69 150.17-6.3 150.15-5.91 150.34-5.62L150.34-5.62Q150.34-4.59 150.49-3.81L150.49-3.81Q150.54-3.22 150.78-2.64L150.78-2.64Q150.88-2.05 150.95-1.42 151.03-0.78 151.12-0.15ZM163.28-33.2L163.28-33.2Q163.28-32.76 162.99-32.54 162.7-32.32 162.45-31.98L162.45-31.98Q161.96-31.54 161.6-31.08 161.23-30.62 160.74-30.18L160.74-30.18Q160.55-29.98 160.21-29.66 159.86-29.35 159.5-29.03 159.13-28.71 158.76-28.47 158.4-28.22 158.15-28.22L158.15-28.22Q157.76-28.22 157.15-28.49 156.54-28.76 156.1-28.86L156.1-28.86Q155.76-28.91 155.49-28.93 155.22-28.96 154.98-29.2L154.98-29.2Q154.1-29.39 153.86-29.81 153.61-30.22 153.32-30.66L153.32-30.66Q153.32-30.86 153.47-30.91 153.61-30.96 153.71-31.1L153.71-31.1Q154.2-31.74 154.54-32.15 154.88-32.57 155.32-33.01L155.32-33.01Q156.15-33.74 156.91-34.52 157.67-35.3 158.5-35.99L158.5-35.99Q158.89-36.04 159.08-36.28 159.28-36.52 159.67-36.52L159.67-36.52Q160.06-36.52 160.33-36.28 160.6-36.04 160.82-35.72 161.04-35.4 161.25-35.08 161.47-34.77 161.77-34.62L161.77-34.62Q162.11-34.38 162.7-33.98 163.28-33.59 163.28-33.2ZM156.59-24.12L156.59-24.12Q156.93-23.93 157.1-23.61 157.28-23.29 157.62-23.14L157.62-23.14Q157.91-23 158.25-23 158.59-23 158.84-22.9L158.84-22.9Q159.03-22.8 159.13-22.66 159.23-22.51 159.33-22.36L159.33-22.36Q159.62-22.12 160.23-21.92 160.84-21.73 161.04-21.48L161.04-21.48Q161.38-21.04 161.55-20.36 161.72-19.68 161.82-18.92 161.91-18.16 161.96-17.41 162.01-16.65 162.11-16.11L162.11-16.11Q162.21-14.99 162.35-13.89 162.5-12.79 162.5-11.67L162.5-11.67Q162.5-10.55 162.4-9.38 162.3-8.2 162.3-7.08L162.3-7.08Q162.3-6.49 162.28-5.62 162.26-4.74 161.87-4.25L161.87-4.25Q161.82-4.05 161.82-3.56L161.82-3.56 161.82-2Q161.82-1.71 161.87-1.42 161.91-1.12 161.91-0.78L161.91-0.78Q161.91-0.24 161.62 0L161.62 0Q161.47-0.05 161.3-0.05 161.13-0.05 160.99-0.05L160.99-0.05Q160.45-0.05 160.21 0.15L160.21 0.15Q159.67 0.1 159.18 0.05 158.69 0 158.15 0L158.15 0Q157.32 0 156.35 0.24L156.35 0.24Q156.15-0.24 156.18-0.78 156.2-1.32 155.96-1.76L155.96-1.76Q155.91-1.9 155.88-2.03 155.86-2.15 155.86-2.29L155.86-2.29Q156.01-2.88 156.01-3.1 156.01-3.32 156.01-3.56L156.01-3.56Q156.01-4.25 155.96-4.96 155.91-5.66 156.01-6.35L156.01-6.35Q156.01-6.59 156.08-6.79 156.15-6.98 156.15-7.23L156.15-7.23Q156.15-7.47 156.05-7.57 155.96-7.67 155.96-7.81L155.96-7.81Q155.96-7.96 155.98-8.3 156.01-8.64 156.1-8.74L156.1-8.74Q156.1-9.13 156.13-9.5 156.15-9.86 156.15-10.21L156.15-10.21Q156.15-10.99 156.1-11.77 156.05-12.55 156.05-13.28L156.05-13.28Q156.05-13.62 156.01-13.72 155.96-13.82 155.91-13.87 155.86-13.92 155.76-13.94 155.66-13.96 155.62-14.11L155.62-14.11Q155.81-16.26 155.47-18.41 155.13-20.56 155.13-22.75L155.13-22.75Q155.13-23.1 155.22-23.27 155.32-23.44 155.47-23.54 155.62-23.63 155.74-23.75 155.86-23.88 155.91-24.12L155.91-24.12Q156.3-24.02 156.59-24.12ZM188.18-34.91L188.18-34.91Q188.09-34.72 188.11-34.52 188.13-34.33 188.13-34.08L188.13-34.08Q188.04-33.5 188.13-33.5 188.23-33.5 188.23-33.4L188.23-33.4 187.89-32.91Q187.89-32.62 187.77-32.37 187.65-32.13 187.7-31.79L187.7-31.79Q187.55-31.54 187.43-31.3 187.3-31.05 187.06-30.81L187.06-30.81 186.43-30.81Q185.89-30.81 185.28-30.74 184.67-30.66 184.08-30.66L184.08-30.66Q183.98-30.66 183.84-30.69 183.69-30.71 183.54-30.71L183.54-30.71Q183.45-30.71 183.3-30.69 183.15-30.66 182.96-30.66L182.96-30.66Q182.23-30.66 181.52-30.74 180.81-30.81 180.03-30.81L180.03-30.81Q179.83-30.81 179.64-30.81 179.44-30.81 179.2-30.76L179.2-30.76Q179.15-29.93 179.13-29.08 179.1-28.22 179.1-27.34L179.1-27.34Q179.1-27.1 179.05-26.83 179-26.56 179-26.32L179-26.32Q178.96-25.68 178.93-25.1 178.91-24.51 178.91-23.88L178.91-23.88Q178.91-22.51 178.93-21.14 178.96-19.78 179-18.36L179-18.36Q179.05-17.63 179.1-16.94 179.15-16.26 179.15-15.53L179.15-15.53Q179.15-13.87 179.1-12.23 179.05-10.6 179.05-8.94L179.05-8.94Q179.05-8.4 179-7.93 178.96-7.47 178.96-6.93L178.96-6.93Q178.96-5.81 179-4.69 179.05-3.56 179.05-2.44L179.05-2.44Q179.05-1.9 179.03-1.37 179-0.83 179-0.29L179-0.29Q178.76 0.1 178.66 0.39 178.56 0.68 178.08 0.68L178.08 0.68Q177.73 0.59 177.76 0.46 177.78 0.34 177.69 0.24L177.69 0.24Q177.25 0.2 177.03 0.32 176.81 0.44 176.51 0.54L176.51 0.54Q176.37 0.49 176.2 0.49 176.03 0.49 175.88 0.49L175.88 0.49Q175.78 0.49 175.68 0.56 175.59 0.63 175.24 0.63L175.24 0.63Q174.95 0.68 174.9 0.54 174.85 0.39 174.61 0.39L174.61 0.39Q174.37 0.54 174.05 0.61 173.73 0.68 173.44 0.68L173.44 0.68Q173.14 0.49 173.17 0.32 173.19 0.15 173.1-0.05L173.1-0.05Q173.05-0.15 172.92-0.32 172.8-0.49 172.71-0.59L172.71-0.59Q172.8-1.27 172.85-1.81 172.9-2.34 172.9-2.98L172.9-2.98Q172.9-4.25 172.8-5.47 172.71-6.69 172.71-7.96L172.71-7.96Q172.71-8.35 172.8-8.79 172.9-9.23 172.9-9.72L172.9-9.72Q172.8-10.11 172.85-10.18 172.9-10.25 172.9-10.35L172.9-10.35Q172.9-10.64 172.88-10.94 172.85-11.23 172.85-11.52L172.85-11.52Q172.85-12.11 172.88-12.7 172.9-13.28 172.9-13.87L172.9-13.87Q172.9-14.11 172.88-14.38 172.85-14.65 172.85-14.89L172.85-14.89Q172.8-15.33 172.83-15.82 172.85-16.31 172.85-16.8L172.85-16.8Q172.85-19.14 172.78-21.44 172.71-23.73 172.71-26.07L172.71-26.07Q172.71-27.25 172.83-28.39 172.95-29.54 172.95-30.71L172.95-30.71Q172.95-30.86 172.85-31.1 172.75-31.35 172.66-31.45L172.66-31.45Q172.41-31.45 172.19-31.47 171.97-31.49 171.73-31.49L171.73-31.49Q171.19-31.49 170.7-31.35L170.7-31.35Q169.78-31.3 168.92-31.23 168.07-31.15 167.19-31.1L167.19-31.1Q166.6-31.15 166.48-31.13 166.36-31.1 166.21-31.1L166.21-31.1Q165.82-31.1 165.63-31.3L165.63-31.3 165.63-31.93Q165.33-32.52 165.38-32.57 165.43-32.62 165.43-32.71L165.43-32.71Q165.43-32.86 165.16-33.03 164.89-33.2 164.89-33.59L164.89-33.59Q164.84-33.98 164.7-34.18 164.55-34.38 164.55-34.57L164.55-34.57Q164.55-34.91 164.7-35.35L164.7-35.35Q165.14-35.6 165.55-35.69 165.97-35.79 166.5-35.94L166.5-35.94Q166.8-36.04 167.04-36.13 167.29-36.23 167.58-36.28L167.58-36.28Q167.92-36.33 168.26-36.33 168.6-36.33 168.95-36.38L168.95-36.38Q169.68-36.52 170.48-36.62 171.29-36.72 172.02-36.72L172.02-36.72Q172.71-36.72 173.39-36.55 174.07-36.38 174.61-36.38L174.61-36.38Q175.39-36.38 176.1-36.28 176.81-36.18 177.59-36.18L177.59-36.18Q177.69-36.18 177.91-36.11 178.13-36.04 178.42-36.04L178.42-36.04 183.15-36.04Q183.54-35.94 183.72-35.99 183.89-36.04 184.03-36.04L184.03-36.04Q184.42-36.04 184.77-35.99 185.11-35.94 185.5-35.94L185.5-35.94Q185.84-35.94 186.04-35.99L186.04-35.99Q186.43-35.94 186.77-35.77 187.11-35.6 187.55-35.6L187.55-35.6Q187.74-35.45 187.84-35.23 187.94-35.01 188.18-34.91ZM210.64-34.91L210.64-34.91Q210.55-34.72 210.57-34.52 210.6-34.33 210.6-34.08L210.6-34.08Q210.5-33.5 210.6-33.5 210.69-33.5 210.69-33.4L210.69-33.4 210.35-32.91Q210.35-32.62 210.23-32.37 210.11-32.13 210.16-31.79L210.16-31.79Q210.01-31.54 209.89-31.3 209.77-31.05 209.52-30.81L209.52-30.81 208.89-30.81Q208.35-30.81 207.74-30.74 207.13-30.66 206.54-30.66L206.54-30.66Q206.45-30.66 206.3-30.69 206.15-30.71 206.01-30.71L206.01-30.71Q205.91-30.71 205.76-30.69 205.62-30.66 205.42-30.66L205.42-30.66Q204.69-30.66 203.98-30.74 203.27-30.81 202.49-30.81L202.49-30.81Q202.29-30.81 202.1-30.81 201.9-30.81 201.66-30.76L201.66-30.76Q201.61-29.93 201.59-29.08 201.56-28.22 201.56-27.34L201.56-27.34Q201.56-27.1 201.51-26.83 201.46-26.56 201.46-26.32L201.46-26.32Q201.42-25.68 201.39-25.1 201.37-24.51 201.37-23.88L201.37-23.88Q201.37-22.51 201.39-21.14 201.42-19.78 201.46-18.36L201.46-18.36Q201.51-17.63 201.56-16.94 201.61-16.26 201.61-15.53L201.61-15.53Q201.61-13.87 201.56-12.23 201.51-10.6 201.51-8.94L201.51-8.94Q201.51-8.4 201.46-7.93 201.42-7.47 201.42-6.93L201.42-6.93Q201.42-5.81 201.46-4.69 201.51-3.56 201.51-2.44L201.51-2.44Q201.51-1.9 201.49-1.37 201.46-0.83 201.46-0.29L201.46-0.29Q201.22 0.1 201.12 0.39 201.03 0.68 200.54 0.68L200.54 0.68Q200.2 0.59 200.22 0.46 200.24 0.34 200.15 0.24L200.15 0.24Q199.71 0.2 199.49 0.32 199.27 0.44 198.97 0.54L198.97 0.54Q198.83 0.49 198.66 0.49 198.49 0.49 198.34 0.49L198.34 0.49Q198.24 0.49 198.14 0.56 198.05 0.63 197.71 0.63L197.71 0.63Q197.41 0.68 197.36 0.54 197.31 0.39 197.07 0.39L197.07 0.39Q196.83 0.54 196.51 0.61 196.19 0.68 195.9 0.68L195.9 0.68Q195.61 0.49 195.63 0.32 195.65 0.15 195.56-0.05L195.56-0.05Q195.51-0.15 195.39-0.32 195.26-0.49 195.17-0.59L195.17-0.59Q195.26-1.27 195.31-1.81 195.36-2.34 195.36-2.98L195.36-2.98Q195.36-4.25 195.26-5.47 195.17-6.69 195.17-7.96L195.17-7.96Q195.17-8.35 195.26-8.79 195.36-9.23 195.36-9.72L195.36-9.72Q195.26-10.11 195.31-10.18 195.36-10.25 195.36-10.35L195.36-10.35Q195.36-10.64 195.34-10.94 195.31-11.23 195.31-11.52L195.31-11.52Q195.31-12.11 195.34-12.7 195.36-13.28 195.36-13.87L195.36-13.87Q195.36-14.11 195.34-14.38 195.31-14.65 195.31-14.89L195.31-14.89Q195.26-15.33 195.29-15.82 195.31-16.31 195.31-16.8L195.31-16.8Q195.31-19.14 195.24-21.44 195.17-23.73 195.17-26.07L195.17-26.07Q195.17-27.25 195.29-28.39 195.41-29.54 195.41-30.71L195.41-30.71Q195.41-30.86 195.31-31.1 195.21-31.35 195.12-31.45L195.12-31.45Q194.87-31.45 194.65-31.47 194.43-31.49 194.19-31.49L194.19-31.49Q193.65-31.49 193.16-31.35L193.16-31.35Q192.24-31.3 191.38-31.23 190.53-31.15 189.65-31.1L189.65-31.1Q189.06-31.15 188.94-31.13 188.82-31.1 188.67-31.1L188.67-31.1Q188.28-31.1 188.09-31.3L188.09-31.3 188.09-31.93Q187.79-32.52 187.84-32.57 187.89-32.62 187.89-32.71L187.89-32.71Q187.89-32.86 187.62-33.03 187.35-33.2 187.35-33.59L187.35-33.59Q187.3-33.98 187.16-34.18 187.01-34.38 187.01-34.57L187.01-34.57Q187.01-34.91 187.16-35.35L187.16-35.35Q187.6-35.6 188.01-35.69 188.43-35.79 188.96-35.94L188.96-35.94Q189.26-36.04 189.5-36.13 189.75-36.23 190.04-36.28L190.04-36.28Q190.38-36.33 190.72-36.33 191.06-36.33 191.41-36.38L191.41-36.38Q192.14-36.52 192.94-36.62 193.75-36.72 194.48-36.72L194.48-36.72Q195.17-36.72 195.85-36.55 196.53-36.38 197.07-36.38L197.07-36.38Q197.85-36.38 198.56-36.28 199.27-36.18 200.05-36.18L200.05-36.18Q200.15-36.18 200.37-36.11 200.59-36.04 200.88-36.04L200.88-36.04 205.62-36.04Q206.01-35.94 206.18-35.99 206.35-36.04 206.49-36.04L206.49-36.04Q206.88-36.04 207.23-35.99 207.57-35.94 207.96-35.94L207.96-35.94Q208.3-35.94 208.5-35.99L208.5-35.99Q208.89-35.94 209.23-35.77 209.57-35.6 210.01-35.6L210.01-35.6Q210.21-35.45 210.3-35.23 210.4-35.01 210.64-34.91ZM220.36-12.79L220.36-12.79Q220.46-12.55 221.07-11.77 221.68-10.99 222.46-10.06 223.24-9.13 223.95-8.28 224.66-7.42 224.95-7.03L224.95-7.03Q225.49-6.35 226-5.69 226.51-5.03 226.95-4.3L226.95-4.3 227.83-2.83Q228.22-2.34 228.54-2 228.86-1.66 229.05-1.07L229.05-1.07Q229.15-0.68 229.15-0.54L229.15-0.54Q229.15-0.2 228.91-0.05L228.91-0.05Q228.52-0.05 228.49 0.07 228.47 0.2 228.27 0.29L228.27 0.29Q228.08 0.39 227.66 0.42 227.25 0.44 227 0.44L227 0.44Q226.56 0.44 225.9 0.42 225.24 0.39 224.85 0.54L224.85 0.54Q224.76 0.59 224.56 0.68 224.37 0.78 224.27 0.78L224.27 0.78Q223.88 0.78 223.71 0.66 223.54 0.54 223.24 0.49L223.24 0.49Q222.85 0.05 222.58-0.42 222.31-0.88 221.97-1.37L221.97-1.37Q221.63-1.71 221.29-1.98 220.95-2.25 220.7-2.59L220.7-2.59Q219.97-3.66 219.19-4.69 218.41-5.71 217.58-6.69L217.58-6.69Q217.19-7.23 216.75-7.67 216.31-8.11 215.92-8.64L215.92-8.64Q215.53-9.13 215.19-9.69 214.84-10.25 214.5-10.79L214.5-10.79Q214.21-11.23 213.72-11.94 213.23-12.65 212.65-13.35 212.06-14.06 211.47-14.7 210.89-15.33 210.5-15.67L210.5-15.67Q210.45-15.97 210.25-16.14 210.06-16.31 209.81-16.46L209.81-16.46Q209.72-16.7 209.59-16.92 209.47-17.14 209.47-17.38L209.47-17.38Q209.47-17.72 209.62-18.02L209.62-18.02Q209.72-18.21 209.74-18.38 209.77-18.55 209.86-18.75L209.86-18.75Q210.11-19.29 210.52-19.8 210.94-20.31 211.18-20.9L211.18-20.9Q211.28-21.04 211.28-21.22 211.28-21.39 211.38-21.53L211.38-21.53Q211.47-21.92 211.79-22.19 212.11-22.46 212.3-22.8L212.3-22.8Q212.55-23.19 212.77-23.61 212.99-24.02 213.23-24.51L213.23-24.51Q213.96-25.73 214.77-26.88 215.58-28.03 216.41-29.2L216.41-29.2Q217.04-30.18 217.65-31.08 218.26-31.98 218.9-32.91L218.9-32.91Q219.24-33.35 219.63-33.94 220.02-34.52 220.48-35.11 220.95-35.69 221.44-36.18 221.92-36.67 222.41-36.96L222.41-36.96Q223.14-37.01 223.39-36.65 223.63-36.28 224.12-36.28L224.12-36.28Q224.76-36.13 224.95-35.89 225.15-35.64 225.39-35.4L225.39-35.4Q226.07-35.4 226.49-35.16 226.9-34.91 227.29-34.42L227.29-34.42Q227.15-33.89 226.86-33.47 226.56-33.06 226.32-32.62L226.32-32.62Q225.93-32.42 225.76-32.08 225.59-31.74 225.24-31.54L225.24-31.54Q224.76-30.71 224.22-29.96 223.68-29.2 223.14-28.47L223.14-28.47Q222.85-28.03 222.53-27.69 222.22-27.34 221.97-26.95L221.97-26.95Q221.88-26.81 221.8-26.64 221.73-26.46 221.63-26.32L221.63-26.32Q221.04-25.39 220.36-24.58 219.68-23.78 219.09-22.8L219.09-22.8Q218.9-22.46 218.77-22.09 218.65-21.73 218.46-21.39L218.46-21.39Q218.26-21.09 217.9-20.61 217.53-20.12 217.19-19.56 216.85-18.99 216.58-18.48 216.31-17.97 216.31-17.63L216.31-17.63Q216.36-17.38 216.92-16.67 217.48-15.97 218.19-15.16 218.9-14.36 219.53-13.65 220.17-12.94 220.36-12.79ZM223.58-21.68L223.58-21.68Q223.93-20.95 224.32-20.41L224.32-20.41Q224.46-20.21 224.66-20.07 224.85-19.92 224.95-19.68L224.95-19.68Q225.05-19.58 225.15-19.26 225.24-18.95 225.34-18.8L225.34-18.8Q225.49-18.41 225.93-17.92 226.37-17.43 226.37-17.04L226.37-17.04Q226.37-16.8 226.27-16.5 226.17-16.21 226.12-15.97L226.12-15.97Q226.07-15.67 226.07-15.36 226.07-15.04 225.88-14.79L225.88-14.79Q225.63-14.55 225.34-14.5 225.05-14.45 224.8-14.26L224.8-14.26Q224.71-14.16 224.51-13.92 224.32-13.67 224.12-13.38 223.93-13.09 223.75-12.82 223.58-12.55 223.58-12.4L223.58-12.4Q223-12.35 222.83-12.38 222.66-12.4 222.46-12.35L222.46-12.35Q222.22-12.6 221.95-12.77 221.68-12.94 221.29-13.09L221.29-13.09Q221.19-13.48 220.85-13.99 220.51-14.5 220.26-14.84L220.26-14.84 219.92-15.28Q219.19-16.31 218.58-17.26 217.97-18.21 217.68-19.38L217.68-19.38Q218.6-20.07 219.12-20.41 219.63-20.75 220.21-21.04 220.8-21.34 221.36-21.61 221.92-21.88 222.41-22.27L222.41-22.27Q222.8-22.27 222.95-22.22 223.1-22.17 223.14-22.12 223.19-22.07 223.27-21.95 223.34-21.83 223.58-21.68ZM248.14-36.43L248.14-36.43Q248.93-36.52 249.34-36.3 249.76-36.08 250.2-36.04L250.2-36.04Q250.44-35.99 250.71-36.01 250.98-36.04 251.27-36.04L251.27-36.04Q251.9-36.04 252.27-35.89 252.64-35.74 253.03-35.25L253.03-35.25Q253.13-35.16 253.3-34.99 253.47-34.81 253.47-34.67L253.47-34.67Q253.47-34.28 253.27-33.98 253.08-33.69 253.08-33.15L253.08-33.15Q253.08-32.32 253.27-31.52 253.47-30.71 253.52-29.88L253.52-29.88Q253.76-26.86 253.78-23.8 253.81-20.75 253.81-17.77L253.81-17.77Q253.81-17.38 253.78-17.07 253.76-16.75 253.56-16.5L253.56-16.5 253.56-15.87Q253.52-14.6 253.61-13.31 253.71-12.01 253.71-10.74L253.71-10.74Q253.71-9.62 253.59-8.5 253.47-7.37 253.47-6.2L253.47-6.2Q253.47-5.13 253.61-4.1 253.76-3.08 253.76-2L253.76-2Q253.52-1.56 253.47-1.32 253.42-1.07 253.27-0.88L253.27-0.88Q253.13-0.78 252.95-0.83 252.78-0.88 252.69-0.73L252.69-0.73Q252.44-0.44 252.34-0.05 252.25 0.34 251.86 0.59L251.86 0.59Q251.76 1.27 251.34 1.64 250.93 2 250.73 2.59L250.73 2.59Q250.15 2.64 249.93 2.54 249.71 2.44 249.46 2.34L249.46 2.34Q249.41 1.51 249.49 1.15 249.56 0.78 249.56 0.39L249.56 0.39Q249.56-0.1 249.32-0.34 249.07-0.59 248.97-0.98L248.97-0.98Q248.44-1.32 248.24-1.44 248.05-1.56 247.9-1.76L247.9-1.76Q247.61-2.15 247.41-2.59 247.22-3.03 246.97-3.42L246.97-3.42Q246.29-4.54 245.58-5.71 244.87-6.88 244.04-8.01L244.04-8.01Q243.9-8.25 243.7-8.45 243.51-8.64 243.36-8.89L243.36-8.89Q242.53-10.21 241.8-11.57 241.06-12.94 240.09-14.16L240.09-14.16Q239.7-14.65 239.5-15.26 239.31-15.87 238.92-16.31L238.92-16.31Q238.87-16.06 238.87-15.77 238.87-15.48 238.87-15.23L238.87-15.23Q238.87-13.57 238.94-11.94 239.01-10.3 239.01-8.64L239.01-8.64Q239.01-8.3 238.94-8.03 238.87-7.76 238.87-7.42L238.87-7.42Q238.87-6.93 238.92-6.49 238.96-6.05 238.96-5.62L238.96-5.62Q238.96-5.08 238.94-4.59 238.92-4.1 238.87-3.61L238.87-3.61Q238.77-2.98 238.62-2.42 238.48-1.86 238.48-1.27L238.48-1.27Q238.48-0.93 238.55-0.63 238.62-0.34 238.62-0.1L238.62-0.1Q238.28 0.44 237.77 0.44 237.26 0.44 236.91 0.83L236.91 0.83Q236.62 0.78 236.45 0.88 236.28 0.98 236.13 0.98L236.13 0.98Q235.94 0.98 235.82 0.93 235.69 0.88 235.55 0.88L235.55 0.88Q235.3 0.88 235.06 1.12 234.81 1.37 234.57 1.37L234.57 1.37Q234.42 1.37 234.06 1.17 233.69 0.98 233.28 0.71 232.86 0.44 232.52 0.17 232.18-0.1 232.18-0.24L232.18-0.24Q232.13-0.49 232.13-0.93L232.13-0.93Q232.13-1.51 232.2-2.08 232.28-2.64 232.37-3.22L232.37-3.22Q232.52-4.88 232.52-6.52 232.52-8.15 232.52-9.81L232.52-9.81Q232.52-10.5 232.54-11.18 232.57-11.87 232.57-12.55L232.57-12.55Q232.57-14.16 232.45-15.8 232.32-17.43 232.32-19.04L232.32-19.04Q232.32-20.17 232.42-21.26 232.52-22.36 232.52-23.44L232.52-23.44Q232.52-24.27 232.47-25.05 232.42-25.83 232.42-26.66L232.42-26.66Q232.37-27.2 232.42-27.81 232.47-28.42 232.47-28.96L232.47-28.96Q232.47-29.59 232.3-30.15 232.13-30.71 232.13-31.2L232.13-31.2Q232.13-31.49 232.25-31.76 232.37-32.03 232.37-32.32L232.37-32.32Q232.37-32.71 232.25-33.11 232.13-33.5 232.13-33.89L232.13-33.89Q232.13-34.28 232.23-34.62 232.32-34.96 232.32-35.35L232.32-35.35Q233.01-35.69 233.54-35.69L233.54-35.69Q234.08-35.69 234.33-35.3L234.33-35.3Q234.33-34.42 234.42-33.96 234.52-33.5 234.57-33.01L234.57-33.01Q234.57-32.71 234.55-32.32 234.52-31.93 234.57-31.57 234.62-31.2 234.79-30.96 234.96-30.71 235.4-30.71L235.4-30.71Q235.5-30.47 235.64-30.27 235.79-30.08 235.84-29.79L235.84-29.79Q236.13-29.98 236.18-30.32 236.23-30.66 236.18-30.96L236.18-30.96Q236.43-30.86 236.62-30.88 236.82-30.91 237.01-30.81L237.01-30.81Q237.11-30.13 237.26-29.61 237.4-29.1 237.35-28.42L237.35-28.42Q238.33-27.69 239.04-26.34 239.75-25 240.38-23.93L240.38-23.93Q240.72-23.39 241.19-22.92 241.65-22.46 241.89-21.83L241.89-21.83Q242.29-21.58 242.53-21.19 242.77-20.8 242.97-20.41L242.97-20.41Q243.95-18.7 245.12-17.09 246.29-15.48 247.56-13.92L247.56-13.92Q247.61-14.26 247.61-14.58 247.61-14.89 247.61-15.23L247.61-15.23 247.56-19.63Q247.56-20.02 247.53-20.36 247.51-20.7 247.46-21.09L247.46-21.09Q247.36-22.36 247.41-23.58 247.46-24.8 247.41-26.07L247.41-26.07Q247.31-27.39 247.29-28.76 247.27-30.13 247.17-31.49L247.17-31.49Q247.12-32.32 247.07-33.15 247.02-33.98 247.02-34.81L247.02-34.81Q247.02-35.84 247.22-36.67L247.22-36.67Q247.31-36.77 247.44-36.84 247.56-36.91 247.75-36.91L247.75-36.91Q248.05-36.91 248.14-36.43ZM279.69-34.91L279.69-34.91Q279.59-34.72 279.61-34.52 279.64-34.33 279.64-34.08L279.64-34.08Q279.54-33.5 279.64-33.5 279.74-33.5 279.74-33.4L279.74-33.4 279.39-32.91Q279.39-32.62 279.27-32.37 279.15-32.13 279.2-31.79L279.2-31.79Q279.05-31.54 278.93-31.3 278.81-31.05 278.56-30.81L278.56-30.81 277.93-30.81Q277.39-30.81 276.78-30.74 276.17-30.66 275.59-30.66L275.59-30.66Q275.49-30.66 275.34-30.69 275.2-30.71 275.05-30.71L275.05-30.71Q274.95-30.71 274.8-30.69 274.66-30.66 274.46-30.66L274.46-30.66Q273.73-30.66 273.02-30.74 272.31-30.81 271.53-30.81L271.53-30.81Q271.34-30.81 271.14-30.81 270.95-30.81 270.7-30.76L270.7-30.76Q270.65-29.93 270.63-29.08 270.61-28.22 270.61-27.34L270.61-27.34Q270.61-27.1 270.56-26.83 270.51-26.56 270.51-26.32L270.51-26.32Q270.46-25.68 270.43-25.1 270.41-24.51 270.41-23.88L270.41-23.88Q270.41-22.51 270.43-21.14 270.46-19.78 270.51-18.36L270.51-18.36Q270.56-17.63 270.61-16.94 270.65-16.26 270.65-15.53L270.65-15.53Q270.65-13.87 270.61-12.23 270.56-10.6 270.56-8.94L270.56-8.94Q270.56-8.4 270.51-7.93 270.46-7.47 270.46-6.93L270.46-6.93Q270.46-5.81 270.51-4.69 270.56-3.56 270.56-2.44L270.56-2.44Q270.56-1.9 270.53-1.37 270.51-0.83 270.51-0.29L270.51-0.29Q270.26 0.1 270.17 0.39 270.07 0.68 269.58 0.68L269.58 0.68Q269.24 0.59 269.26 0.46 269.29 0.34 269.19 0.24L269.19 0.24Q268.75 0.2 268.53 0.32 268.31 0.44 268.02 0.54L268.02 0.54Q267.87 0.49 267.7 0.49 267.53 0.49 267.38 0.49L267.38 0.49Q267.29 0.49 267.19 0.56 267.09 0.63 266.75 0.63L266.75 0.63Q266.46 0.68 266.41 0.54 266.36 0.39 266.11 0.39L266.11 0.39Q265.87 0.54 265.55 0.61 265.23 0.68 264.94 0.68L264.94 0.68Q264.65 0.49 264.67 0.32 264.7 0.15 264.6-0.05L264.6-0.05Q264.55-0.15 264.43-0.32 264.31-0.49 264.21-0.59L264.21-0.59Q264.31-1.27 264.36-1.81 264.4-2.34 264.4-2.98L264.4-2.98Q264.4-4.25 264.31-5.47 264.21-6.69 264.21-7.96L264.21-7.96Q264.21-8.35 264.31-8.79 264.4-9.23 264.4-9.72L264.4-9.72Q264.31-10.11 264.36-10.18 264.4-10.25 264.4-10.35L264.4-10.35Q264.4-10.64 264.38-10.94 264.36-11.23 264.36-11.52L264.36-11.52Q264.36-12.11 264.38-12.7 264.4-13.28 264.4-13.87L264.4-13.87Q264.4-14.11 264.38-14.38 264.36-14.65 264.36-14.89L264.36-14.89Q264.31-15.33 264.33-15.82 264.36-16.31 264.36-16.8L264.36-16.8Q264.36-19.14 264.28-21.44 264.21-23.73 264.21-26.07L264.21-26.07Q264.21-27.25 264.33-28.39 264.45-29.54 264.45-30.71L264.45-30.71Q264.45-30.86 264.36-31.1 264.26-31.35 264.16-31.45L264.16-31.45Q263.92-31.45 263.7-31.47 263.48-31.49 263.23-31.49L263.23-31.49Q262.7-31.49 262.21-31.35L262.21-31.35Q261.28-31.3 260.42-31.23 259.57-31.15 258.69-31.1L258.69-31.1Q258.11-31.15 257.98-31.13 257.86-31.1 257.71-31.1L257.71-31.1Q257.32-31.1 257.13-31.3L257.13-31.3 257.13-31.93Q256.84-32.52 256.88-32.57 256.93-32.62 256.93-32.71L256.93-32.71Q256.93-32.86 256.67-33.03 256.4-33.2 256.4-33.59L256.4-33.59Q256.35-33.98 256.2-34.18 256.05-34.38 256.05-34.57L256.05-34.57Q256.05-34.91 256.2-35.35L256.2-35.35Q256.64-35.6 257.06-35.69 257.47-35.79 258.01-35.94L258.01-35.94Q258.3-36.04 258.54-36.13 258.79-36.23 259.08-36.28L259.08-36.28Q259.42-36.33 259.77-36.33 260.11-36.33 260.45-36.38L260.45-36.38Q261.18-36.52 261.99-36.62 262.79-36.72 263.53-36.72L263.53-36.72Q264.21-36.72 264.89-36.55 265.58-36.38 266.11-36.38L266.11-36.38Q266.89-36.38 267.6-36.28 268.31-36.18 269.09-36.18L269.09-36.18Q269.19-36.18 269.41-36.11 269.63-36.04 269.92-36.04L269.92-36.04 274.66-36.04Q275.05-35.94 275.22-35.99 275.39-36.04 275.54-36.04L275.54-36.04Q275.93-36.04 276.27-35.99 276.61-35.94 277-35.94L277-35.94Q277.34-35.94 277.54-35.99L277.54-35.99Q277.93-35.94 278.27-35.77 278.61-35.6 279.05-35.6L279.05-35.6Q279.25-35.45 279.35-35.23 279.44-35.01 279.69-34.91ZM299.9 0.59L299.9 0.59Q299.71 0.39 299.71 0.05L299.71 0.05Q299.71-0.2 299.73-0.37 299.76-0.54 299.8-0.78L299.8-0.78Q300.05-1.9 300.05-3.05 300.05-4.2 300.15-5.32L300.15-5.32Q300.2-6.01 300.22-6.69 300.24-7.37 300.24-8.06L300.24-8.06Q300.24-12.11 300-16.14 299.76-20.17 299.76-24.27L299.76-24.27Q299.76-27.1 299.85-29.96 299.95-32.81 300-35.69L300-35.69Q300.44-35.94 301.07-35.89 301.71-35.84 302.1-36.33L302.1-36.33Q302.34-36.38 302.59-36.35 302.83-36.33 303.08-36.33L303.08-36.33Q303.61-36.33 304.1-36.67 304.59-37.01 305.18-37.26L305.18-37.26Q305.47-37.16 305.59-37.18 305.71-37.21 305.86-37.21L305.86-37.21Q306.01-37.21 306.49-36.87 306.98-36.52 307.57-36.08 308.15-35.64 308.67-35.25 309.18-34.86 309.33-34.77L309.33-34.77Q310.55-33.84 311.5-32.74 312.45-31.64 313.38-30.52L313.38-30.52Q314.26-29.39 315.28-28.25 316.31-27.1 317.29-26.12L317.29-26.12Q317.63-25.73 317.99-25.44 318.36-25.15 318.7-24.76L318.7-24.76Q318.85-24.56 318.97-24.34 319.09-24.12 319.24-23.88L319.24-23.88Q319.53-23.54 319.92-23.29 320.31-23.05 320.65-22.71L320.65-22.71Q320.9-22.51 321.39-21.92 321.88-21.34 321.88-21.04L321.88-21.04Q321.88-20.85 321.78-20.7 321.68-20.56 321.58-20.36L321.58-20.36Q321.53-20.21 321.53-19.92 321.53-19.63 321.48-19.53L321.48-19.53Q321-19.14 320.95-19.04 320.9-18.95 320.8-18.85L320.8-18.85Q320.65-18.65 320.43-18.53 320.21-18.41 320.12-18.16L320.12-18.16Q320.02-18.02 320.04-17.87 320.07-17.72 319.97-17.53L319.97-17.53Q319.73-16.99 319.19-16.5 318.65-16.02 318.26-15.43L318.26-15.43Q317.72-14.55 317.19-13.67 316.65-12.79 315.97-11.96L315.97-11.96Q315.67-11.57 315.36-11.21 315.04-10.84 314.75-10.45L314.75-10.45Q314.5-10.16 314.31-9.84 314.11-9.52 313.87-9.13L313.87-9.13Q313.33-8.45 312.84-7.79 312.35-7.13 311.82-6.45L311.82-6.45Q311.23-5.62 310.55-4.81 309.86-4 309.33-3.17L309.33-3.17Q308.79-2.29 308.2-1.56 307.62-0.83 306.93-0.15L306.93-0.15Q306.74 0 306.45 0.29 306.15 0.59 305.86 0.59L305.86 0.59Q305.66 0.59 305.54 0.44 305.42 0.29 305.18 0.29L305.18 0.29Q305.13 0.29 304.88 0.34 304.64 0.39 304.3 0.44L304.3 0.44 303.42 0.54Q302.64 0.93 302.29 0.9 301.95 0.88 301.61 0.93L301.61 0.93Q301.42 0.98 301.29 1.07 301.17 1.17 301.03 1.17L301.03 1.17Q300.68 1.17 300.49 0.85 300.29 0.54 299.9 0.59ZM314.55-20.51L314.55-20.51Q314.55-20.75 314.09-21.19 313.62-21.63 313.38-21.83L313.38-21.83Q313.04-22.12 312.57-22.39 312.11-22.66 311.82-23L311.82-23Q311.57-23.29 311.35-23.61 311.13-23.93 310.89-24.22L310.89-24.22Q310.01-25.2 309.11-26.17 308.2-27.15 307.52-28.32L307.52-28.32Q307.08-28.61 306.69-29 306.3-29.39 305.76-29.64L305.76-29.64Q305.66-29.35 305.69-29.03 305.71-28.71 305.71-28.42L305.71-28.42Q305.71-27.29 305.62-26.22 305.52-25.15 305.52-24.07L305.52-24.07Q305.52-21.44 305.64-18.87 305.76-16.31 305.76-13.72L305.76-13.72Q305.76-12.74 305.79-11.77 305.81-10.79 305.96-9.81L305.96-9.81Q305.86-9.52 305.86-9.28L305.86-9.28Q305.86-9.03 305.96-8.64L305.96-8.64Q306.35-8.89 306.62-9.25 306.88-9.62 307.13-9.96L307.13-9.96Q307.96-11.04 308.76-12.13 309.57-13.23 310.4-14.36L310.4-14.36Q310.94-15.09 311.5-15.8 312.06-16.5 312.6-17.29L312.6-17.29Q312.74-17.48 313.06-17.97 313.38-18.46 313.7-18.97 314.01-19.48 314.28-19.92 314.55-20.36 314.55-20.51ZM331.79-12.79L331.79-12.79Q331.88-12.55 332.5-11.77 333.11-10.99 333.89-10.06 334.67-9.13 335.38-8.28 336.08-7.42 336.38-7.03L336.38-7.03Q336.91-6.35 337.43-5.69 337.94-5.03 338.38-4.3L338.38-4.3 339.26-2.83Q339.65-2.34 339.97-2 340.28-1.66 340.48-1.07L340.48-1.07Q340.58-0.68 340.58-0.54L340.58-0.54Q340.58-0.2 340.33-0.05L340.33-0.05Q339.94-0.05 339.92 0.07 339.89 0.2 339.7 0.29L339.7 0.29Q339.5 0.39 339.09 0.42 338.67 0.44 338.43 0.44L338.43 0.44Q337.99 0.44 337.33 0.42 336.67 0.39 336.28 0.54L336.28 0.54Q336.18 0.59 335.99 0.68 335.79 0.78 335.69 0.78L335.69 0.78Q335.3 0.78 335.13 0.66 334.96 0.54 334.67 0.49L334.67 0.49Q334.28 0.05 334.01-0.42 333.74-0.88 333.4-1.37L333.4-1.37Q333.06-1.71 332.71-1.98 332.37-2.25 332.13-2.59L332.13-2.59Q331.4-3.66 330.62-4.69 329.83-5.71 329-6.69L329-6.69Q328.61-7.23 328.17-7.67 327.73-8.11 327.34-8.64L327.34-8.64Q326.95-9.13 326.61-9.69 326.27-10.25 325.93-10.79L325.93-10.79Q325.63-11.23 325.15-11.94 324.66-12.65 324.07-13.35 323.49-14.06 322.9-14.7 322.31-15.33 321.92-15.67L321.92-15.67Q321.88-15.97 321.68-16.14 321.48-16.31 321.24-16.46L321.24-16.46Q321.14-16.7 321.02-16.92 320.9-17.14 320.9-17.38L320.9-17.38Q320.9-17.72 321.04-18.02L321.04-18.02Q321.14-18.21 321.17-18.38 321.19-18.55 321.29-18.75L321.29-18.75Q321.53-19.29 321.95-19.8 322.36-20.31 322.61-20.9L322.61-20.9Q322.71-21.04 322.71-21.22 322.71-21.39 322.8-21.53L322.8-21.53Q322.9-21.92 323.22-22.19 323.54-22.46 323.73-22.8L323.73-22.8Q323.97-23.19 324.19-23.61 324.41-24.02 324.66-24.51L324.66-24.51Q325.39-25.73 326.2-26.88 327-28.03 327.83-29.2L327.83-29.2Q328.47-30.18 329.08-31.08 329.69-31.98 330.32-32.91L330.32-32.91Q330.66-33.35 331.05-33.94 331.45-34.52 331.91-35.11 332.37-35.69 332.86-36.18 333.35-36.67 333.84-36.96L333.84-36.96Q334.57-37.01 334.81-36.65 335.06-36.28 335.55-36.28L335.55-36.28Q336.18-36.13 336.38-35.89 336.57-35.64 336.82-35.4L336.82-35.4Q337.5-35.4 337.92-35.16 338.33-34.91 338.72-34.42L338.72-34.42Q338.57-33.89 338.28-33.47 337.99-33.06 337.74-32.62L337.74-32.62Q337.35-32.42 337.18-32.08 337.01-31.74 336.67-31.54L336.67-31.54Q336.18-30.71 335.64-29.96 335.11-29.2 334.57-28.47L334.57-28.47Q334.28-28.03 333.96-27.69 333.64-27.34 333.4-26.95L333.4-26.95Q333.3-26.81 333.23-26.64 333.15-26.46 333.06-26.32L333.06-26.32Q332.47-25.39 331.79-24.58 331.1-23.78 330.52-22.8L330.52-22.8Q330.32-22.46 330.2-22.09 330.08-21.73 329.88-21.39L329.88-21.39Q329.69-21.09 329.32-20.61 328.96-20.12 328.61-19.56 328.27-18.99 328-18.48 327.73-17.97 327.73-17.63L327.73-17.63Q327.78-17.38 328.34-16.67 328.91-15.97 329.61-15.16 330.32-14.36 330.96-13.65 331.59-12.94 331.79-12.79ZM335.01-21.68L335.01-21.68Q335.35-20.95 335.74-20.41L335.74-20.41Q335.89-20.21 336.08-20.07 336.28-19.92 336.38-19.68L336.38-19.68Q336.47-19.58 336.57-19.26 336.67-18.95 336.77-18.8L336.77-18.8Q336.91-18.41 337.35-17.92 337.79-17.43 337.79-17.04L337.79-17.04Q337.79-16.8 337.7-16.5 337.6-16.21 337.55-15.97L337.55-15.97Q337.5-15.67 337.5-15.36 337.5-15.04 337.3-14.79L337.3-14.79Q337.06-14.55 336.77-14.5 336.47-14.45 336.23-14.26L336.23-14.26Q336.13-14.16 335.94-13.92 335.74-13.67 335.55-13.38 335.35-13.09 335.18-12.82 335.01-12.55 335.01-12.4L335.01-12.4Q334.42-12.35 334.25-12.38 334.08-12.4 333.89-12.35L333.89-12.35Q333.64-12.6 333.37-12.77 333.11-12.94 332.71-13.09L332.71-13.09Q332.62-13.48 332.28-13.99 331.93-14.5 331.69-14.84L331.69-14.84 331.35-15.28Q330.62-16.31 330-17.26 329.39-18.21 329.1-19.38L329.1-19.38Q330.03-20.07 330.54-20.41 331.05-20.75 331.64-21.04 332.23-21.34 332.79-21.61 333.35-21.88 333.84-22.27L333.84-22.27Q334.23-22.27 334.38-22.22 334.52-22.17 334.57-22.12 334.62-22.07 334.69-21.95 334.77-21.83 335.01-21.68ZM360.5-37.55L360.5-37.55Q360.89-37.55 361.06-37.38 361.23-37.21 361.33-36.96L361.33-36.96Q361.82-37.01 362.33-36.79 362.84-36.57 362.94-36.38L362.94-36.38Q363.33-36.33 363.43-36.18 363.53-36.04 363.72-35.99L363.72-35.99 364.26-36.04Q364.45-35.84 365.01-35.64 365.58-35.45 365.67-35.21L365.67-35.21Q365.58-34.96 365.6-34.69 365.63-34.42 365.63-34.08L365.63-34.08Q365.48-33.35 365.16-32.76 364.84-32.18 364.6-31.64L364.6-31.64Q364.45-31.4 364.38-31.1 364.31-30.81 364.21-30.57L364.21-30.57Q364.11-30.37 364.04-30.2 363.96-30.03 363.87-29.83L363.87-29.83Q363.87-29.59 363.77-29.32 363.67-29.05 363.57-28.81L363.57-28.81Q363.57-28.52 363.53-28.39 363.48-28.27 363.48-28.17L363.48-28.17Q362.55-25.93 362.01-23.97 361.47-22.02 360.94-20.07L360.94-20.07Q360.69-19.48 360.45-18.6 360.21-17.72 359.84-16.53 359.47-15.33 359.06-13.99 358.64-12.65 358.28-11.5 357.91-10.35 357.64-9.55 357.37-8.74 357.32-8.64L357.32-8.64Q357.18-7.81 356.88-6.96 356.59-6.1 356.4-5.18L356.4-5.18Q356.15-4.88 356.1-4.52 356.05-4.15 355.86-3.81L355.86-3.81Q355.47-3.86 355.22-3.61L355.22-3.61Q355.18-3.22 355.3-2.88 355.42-2.54 355.42-2.15L355.42-2.15Q355.22-1.61 354.93-1.46 354.64-1.32 354.54-0.98L354.54-0.98Q354.2-1.07 354.03-0.88 353.86-0.68 353.66-0.68L353.66-0.68Q353.08-0.83 352.98-0.49L352.98-0.49Q352.69-0.59 352.59-0.42 352.49-0.24 352.39-0.2L352.39-0.2Q352-0.2 351.78-0.02 351.56 0.15 351.27 0.2L351.27 0.2Q351.07 0.1 350.88-0.02 350.68-0.15 350.54-0.29L350.54-0.29Q350.24-1.12 350-1.93 349.76-2.73 349.51-3.56L349.51-3.56Q349.41-3.96 349.27-4.3 349.12-4.64 349.02-5.03L349.02-5.03Q348.97-5.27 348.97-5.44 348.97-5.62 348.93-5.81L348.93-5.81Q348.83-6.05 348.73-6.3 348.63-6.54 348.54-6.79L348.54-6.79Q348.14-7.86 347.95-8.98L347.95-8.98Q347.71-9.81 347.49-10.62 347.27-11.43 347.07-12.26L347.07-12.26Q346.92-12.94 346.73-13.7 346.53-14.45 346.24-15.04L346.24-15.04Q346.14-15.82 345.83-16.53 345.51-17.24 345.51-17.97L345.51-17.97Q345.26-18.75 345.09-19.53 344.92-20.31 344.68-21.09L344.68-21.09Q344.58-21.48 344.43-21.83 344.29-22.17 344.19-22.51L344.19-22.51Q344.04-22.95 343.95-23.44 343.85-23.93 343.75-24.41L343.75-24.41Q343.6-24.85 343.46-25.27 343.31-25.68 343.16-26.12L343.16-26.12Q342.92-26.95 342.7-27.76 342.48-28.56 342.24-29.39L342.24-29.39Q341.99-30.32 341.77-31.23 341.55-32.13 341.02-32.96L341.02-32.96Q340.87-33.2 340.8-33.52 340.72-33.84 340.58-34.13L340.58-34.13Q340.67-34.52 340.63-35.03 340.58-35.55 340.77-35.84L340.77-35.84Q341.26-35.84 341.94-35.86 342.63-35.89 342.97-35.79L342.97-35.79Q343.16-35.84 343.29-35.94 343.41-36.04 343.6-36.08L343.6-36.08Q343.9-35.94 344.19-35.94L344.19-35.94Q344.63-35.94 344.87-36.13L344.87-36.13Q345.41-35.89 345.46-36.04 345.51-36.18 345.7-36.18L345.7-36.18Q346-36.08 346.14-35.77 346.29-35.45 346.44-35.21L346.44-35.21Q346.97-34.23 347.24-33.28 347.51-32.32 347.8-31.25L347.8-31.25Q348.14-30.27 348.44-29.32 348.73-28.37 348.97-27.39L348.97-27.39Q349.12-26.9 349.22-26.42 349.32-25.93 349.41-25.44L349.41-25.44Q349.56-24.9 349.76-24.44 349.95-23.97 350.15-23.44L350.15-23.44Q350.24-22.9 350.34-22.39 350.44-21.88 350.59-21.34L350.59-21.34Q350.68-20.95 350.83-20.61 350.98-20.26 351.07-19.87L351.07-19.87Q351.17-19.48 351.27-19.07 351.37-18.65 351.46-18.26L351.46-18.26Q351.71-17.29 352-16.33 352.29-15.38 352.54-14.4L352.54-14.4Q352.78-14.55 352.83-14.94 352.88-15.33 353.03-15.58L353.03-15.58Q353.13-16.16 353.34-16.85 353.56-17.53 353.76-18.12L353.76-18.12Q353.81-18.36 353.88-18.55 353.96-18.75 354.05-18.99L354.05-18.99Q354.2-19.29 354.25-19.6 354.3-19.92 354.39-20.26L354.39-20.26Q354.59-20.95 354.81-21.63 355.03-22.31 355.22-23L355.22-23Q355.42-23.63 355.57-24.32 355.71-25 355.96-25.59L355.96-25.59Q356.2-26.12 356.37-26.61 356.54-27.1 356.69-27.64L356.69-27.64Q356.84-28.17 356.93-28.71 357.03-29.25 357.28-29.69L357.28-29.69Q357.37-29.93 357.5-30.25 357.62-30.57 357.71-30.86L357.71-30.86Q357.96-31.64 358.15-32.42 358.35-33.2 358.69-33.98L358.69-33.98Q358.94-34.67 359.28-35.3 359.62-35.94 359.86-36.62L359.86-36.62Q360.06-37.11 360.21-37.26 360.35-37.4 360.5-37.55ZM375.83-12.79L375.83-12.79Q375.93-12.55 376.54-11.77 377.15-10.99 377.93-10.06 378.71-9.13 379.42-8.28 380.13-7.42 380.42-7.03L380.42-7.03Q380.96-6.35 381.47-5.69 381.98-5.03 382.42-4.3L382.42-4.3 383.3-2.83Q383.69-2.34 384.01-2 384.33-1.66 384.52-1.07L384.52-1.07Q384.62-0.68 384.62-0.54L384.62-0.54Q384.62-0.2 384.38-0.05L384.38-0.05Q383.98-0.05 383.96 0.07 383.94 0.2 383.74 0.29L383.74 0.29Q383.54 0.39 383.13 0.42 382.71 0.44 382.47 0.44L382.47 0.44Q382.03 0.44 381.37 0.42 380.71 0.39 380.32 0.54L380.32 0.54Q380.22 0.59 380.03 0.68 379.83 0.78 379.74 0.78L379.74 0.78Q379.35 0.78 379.17 0.66 379 0.54 378.71 0.49L378.71 0.49Q378.32 0.05 378.05-0.42 377.78-0.88 377.44-1.37L377.44-1.37Q377.1-1.71 376.76-1.98 376.42-2.25 376.17-2.59L376.17-2.59Q375.44-3.66 374.66-4.69 373.88-5.71 373.05-6.69L373.05-6.69Q372.66-7.23 372.22-7.67 371.78-8.11 371.39-8.64L371.39-8.64Q371-9.13 370.65-9.69 370.31-10.25 369.97-10.79L369.97-10.79Q369.68-11.23 369.19-11.94 368.7-12.65 368.12-13.35 367.53-14.06 366.94-14.7 366.36-15.33 365.97-15.67L365.97-15.67Q365.92-15.97 365.72-16.14 365.53-16.31 365.28-16.46L365.28-16.46Q365.19-16.7 365.06-16.92 364.94-17.14 364.94-17.38L364.94-17.38Q364.94-17.72 365.09-18.02L365.09-18.02Q365.19-18.21 365.21-18.38 365.23-18.55 365.33-18.75L365.33-18.75Q365.58-19.29 365.99-19.8 366.41-20.31 366.65-20.9L366.65-20.9Q366.75-21.04 366.75-21.22 366.75-21.39 366.85-21.53L366.85-21.53Q366.94-21.92 367.26-22.19 367.58-22.46 367.77-22.8L367.77-22.8Q368.02-23.19 368.24-23.61 368.46-24.02 368.7-24.51L368.7-24.51Q369.43-25.73 370.24-26.88 371.04-28.03 371.88-29.2L371.88-29.2Q372.51-30.18 373.12-31.08 373.73-31.98 374.37-32.91L374.37-32.91Q374.71-33.35 375.1-33.94 375.49-34.52 375.95-35.11 376.42-35.69 376.9-36.18 377.39-36.67 377.88-36.96L377.88-36.96Q378.61-37.01 378.86-36.65 379.1-36.28 379.59-36.28L379.59-36.28Q380.22-36.13 380.42-35.89 380.62-35.64 380.86-35.4L380.86-35.4Q381.54-35.4 381.96-35.16 382.37-34.91 382.76-34.42L382.76-34.42Q382.62-33.89 382.32-33.47 382.03-33.06 381.79-32.62L381.79-32.62Q381.4-32.42 381.23-32.08 381.05-31.74 380.71-31.54L380.71-31.54Q380.22-30.71 379.69-29.96 379.15-29.2 378.61-28.47L378.61-28.47Q378.32-28.03 378-27.69 377.69-27.34 377.44-26.95L377.44-26.95Q377.34-26.81 377.27-26.64 377.2-26.46 377.1-26.32L377.1-26.32Q376.51-25.39 375.83-24.58 375.15-23.78 374.56-22.8L374.56-22.8Q374.37-22.46 374.24-22.09 374.12-21.73 373.93-21.39L373.93-21.39Q373.73-21.09 373.36-20.61 373-20.12 372.66-19.56 372.31-18.99 372.05-18.48 371.78-17.97 371.78-17.63L371.78-17.63Q371.83-17.38 372.39-16.67 372.95-15.97 373.66-15.16 374.37-14.36 375-13.65 375.63-12.94 375.83-12.79ZM379.05-21.68L379.05-21.68Q379.39-20.95 379.79-20.41L379.79-20.41Q379.93-20.21 380.13-20.07 380.32-19.92 380.42-19.68L380.42-19.68Q380.52-19.58 380.62-19.26 380.71-18.95 380.81-18.8L380.81-18.8Q380.96-18.41 381.4-17.92 381.84-17.43 381.84-17.04L381.84-17.04Q381.84-16.8 381.74-16.5 381.64-16.21 381.59-15.97L381.59-15.97Q381.54-15.67 381.54-15.36 381.54-15.04 381.35-14.79L381.35-14.79Q381.1-14.55 380.81-14.5 380.52-14.45 380.27-14.26L380.27-14.26Q380.18-14.16 379.98-13.92 379.79-13.67 379.59-13.38 379.39-13.09 379.22-12.82 379.05-12.55 379.05-12.4L379.05-12.4Q378.47-12.35 378.3-12.38 378.13-12.4 377.93-12.35L377.93-12.35Q377.69-12.6 377.42-12.77 377.15-12.94 376.76-13.09L376.76-13.09Q376.66-13.48 376.32-13.99 375.98-14.5 375.73-14.84L375.73-14.84 375.39-15.28Q374.66-16.31 374.05-17.26 373.44-18.21 373.14-19.38L373.14-19.38Q374.07-20.07 374.58-20.41 375.1-20.75 375.68-21.04 376.27-21.34 376.83-21.61 377.39-21.88 377.88-22.27L377.88-22.27Q378.27-22.27 378.42-22.22 378.56-22.17 378.61-22.12 378.66-22.07 378.74-21.95 378.81-21.83 379.05-21.68ZM405.96-8.35L405.96-8.35Q406.3-7.91 406.37-7.64 406.45-7.37 406.54-7.1 406.64-6.84 406.71-6.59 406.79-6.35 406.79-6.3L406.79-6.3Q406.79-5.96 406.67-5.74 406.54-5.52 406.3-5.18L406.3-5.18Q404.35-4.44 402.44-3.74 400.54-3.03 398.54-2.34L398.54-2.34Q398-2.2 397.56-2.03 397.12-1.86 396.58-1.76L396.58-1.76Q396.48-1.66 396.26-1.59 396.04-1.51 395.75-1.42 395.46-1.32 395.19-1.25 394.92-1.17 394.82-1.17L394.82-1.17Q394.43-1.07 393.97-1.1 393.51-1.12 393.07-1.07L393.07-1.07Q392.82-1.03 392.72-0.83 392.63-0.63 392.5-0.42 392.38-0.2 392.14-0.02 391.89 0.15 391.46 0.15L391.46 0.15Q391.02 0.15 390.58 0.1 390.14 0.05 389.65-0.15L389.65-0.15Q389.55-0.29 389.58-0.51 389.6-0.73 389.5-0.88L389.5-0.88Q389.06-0.93 388.82-0.81 388.57-0.68 388.33-0.63L388.33-0.63Q388.18-0.83 388.11-1.1 388.04-1.37 387.84-1.56L387.84-1.56Q387.79-1.81 387.79-2.05 387.79-2.29 387.79-2.54L387.79-2.54Q387.79-2.88 387.82-3.34 387.84-3.81 387.99-4.05L387.99-4.05Q388.13-6.84 388.13-9.62 388.13-12.4 388.13-15.19L388.13-15.19Q388.13-15.48 388.13-15.94 388.13-16.41 388.11-16.89 388.09-17.38 388.06-17.8 388.04-18.21 387.99-18.41L387.99-18.41Q388.04-18.75 388.04-19.07 388.04-19.38 388.04-19.73L388.04-19.73Q388.04-20.02 388.04-20.26 388.04-20.51 387.94-20.75L387.94-20.75Q387.99-20.95 387.99-21.29L387.99-21.29Q387.99-21.53 387.94-21.78 387.89-22.02 387.89-22.27L387.89-22.27Q387.89-22.66 387.92-23.02 387.94-23.39 387.94-23.78L387.94-23.78Q387.94-25.05 387.82-26.29 387.7-27.54 387.7-28.81L387.7-28.81Q387.7-30.47 387.67-32.13 387.65-33.79 387.6-35.45L387.6-35.45Q387.79-35.94 387.79-36.28L387.79-36.28Q388.48-36.62 388.87-36.52 389.26-36.43 389.65-36.43L389.65-36.43Q389.89-36.43 390.09-36.47 390.28-36.52 390.48-36.62L390.48-36.62Q390.72-36.57 390.89-36.5 391.06-36.43 391.31-36.43L391.31-36.43Q392.04-36.57 392.11-36.47 392.19-36.38 392.33-36.28L392.33-36.28Q392.53-36.33 392.65-36.45 392.77-36.57 392.97-36.57L392.97-36.57Q393.26-36.57 393.41-36.21 393.55-35.84 393.75-35.6L393.75-35.6Q393.75-35.06 393.95-34.62L393.95-34.62Q394.04-32.62 394.02-30.66 393.99-28.71 394.14-26.76L394.14-26.76Q394.19-25.88 394.26-24.93 394.34-23.97 394.34-23.1L394.34-23.1Q394.34-21.63 394.36-20.14 394.38-18.65 394.38-17.14L394.38-17.14Q394.38-16.89 394.41-16.7 394.43-16.5 394.43-16.26L394.43-16.26Q394.43-15.67 394.38-15.14 394.34-14.6 394.34-14.06L394.34-14.06 394.34-10.25Q394.34-9.77 394.31-9.25 394.29-8.74 394.34-8.25L394.34-8.25 394.53-7.67Q395.07-7.86 395.63-8.08 396.19-8.3 396.83-8.4L396.83-8.4Q397.22-8.5 397.56-8.59 397.9-8.69 398.29-8.79L398.29-8.79Q398.97-9.18 399.37-9.33 399.76-9.47 400.15-9.62L400.15-9.62Q400.98-9.91 401.76-10.23 402.54-10.55 403.37-10.84L403.37-10.84Q403.76-10.74 404-10.94L404-10.94Q404.49-10.84 404.88-10.84L404.88-10.84Q405.42-10.3 405.54-10.01 405.66-9.72 405.91-9.47L405.91-9.47Q405.81-9.23 405.93-9.18 406.05-9.13 406.1-8.94L406.1-8.94Q406.3-8.84 406.15-8.67 406.01-8.5 405.96-8.35ZM433.01-19.38L433.01-19.38Q432.91-19.19 432.81-19.02 432.71-18.85 432.67-18.65L432.67-18.65Q432.86-18.46 433.03-18.24 433.2-18.02 433.2-17.77L433.2-17.77Q433.2-17.58 433.13-17.41 433.06-17.24 433.11-17.09L433.11-17.09Q432.91-16.75 432.69-16.46 432.47-16.16 432.37-15.82L432.37-15.82Q432.18-15.63 432.06-15.43 431.93-15.23 431.84-15.04L431.84-15.04Q431.59-14.94 431.52-14.72 431.45-14.5 431.25-14.36L431.25-14.36Q431.2-14.16 430.76-13.43 430.32-12.7 429.79-11.87 429.25-11.04 428.76-10.25 428.27-9.47 428.08-9.23L428.08-9.23Q427.98-8.98 427.86-8.84 427.73-8.69 427.59-8.5L427.59-8.5Q427.49-8.35 427.44-8.18 427.39-8.01 427.29-7.91L427.29-7.91Q427.2-7.71 427.08-7.57 426.95-7.42 426.86-7.18L426.86-7.18Q426.37-6.54 425.88-5.66 425.39-4.79 424.95-4.1L424.95-4.1Q424.71-3.71 424.49-3.32 424.27-2.93 424.02-2.54L424.02-2.54Q423.78-2.15 423.54-1.81 423.29-1.46 423.05-1.07L423.05-1.07Q422.66-0.78 422.36-0.37 422.07 0.05 421.68 0.34L421.68 0.34Q421.04 0.34 420.9-0.24L420.9-0.24Q420.26-0.39 420.26-0.24 420.26-0.1 420.26 0L420.26 0Q420.07 0.1 420 0.29 419.92 0.49 419.73 0.59L419.73 0.59Q419.34 0.49 419.07 0.27 418.8 0.05 418.31 0.1L418.31 0.1Q418.12-0.2 417.87-0.42 417.63-0.63 417.43-0.88L417.43-0.88Q417.33-1.17 417.16-1.37 416.99-1.56 416.85-1.76L416.85-1.76Q416.7-2 416.55-2.2 416.41-2.39 416.26-2.59L416.26-2.59Q415.92-3.03 415.6-3.44 415.28-3.86 415.04-4.3L415.04-4.3Q414.65-4.88 414.28-5.49 413.92-6.1 413.53-6.69L413.53-6.69Q413.33-6.98 413.13-7.28 412.94-7.57 412.79-7.86L412.79-7.86Q412.7-8.11 412.52-8.45 412.35-8.79 412.11-8.89L412.11-8.89Q412.01-9.28 411.77-9.47 411.52-9.67 411.28-9.96L411.28-9.96Q410.94-10.35 410.64-10.82 410.35-11.28 410.06-11.77L410.06-11.77Q409.08-13.13 408.23-14.45 407.37-15.77 406.54-17.19L406.54-17.19Q406.79-17.97 406.79-18.36 406.79-18.75 407.03-18.99L407.03-18.99Q407.03-19.19 407.13-19.58L407.13-19.58Q407.76-20.65 408.35-21.53L408.35-21.53Q408.89-22.36 409.11-22.9 409.33-23.44 409.57-24.02L409.57-24.02Q409.81-24.17 409.96-24.39 410.11-24.61 410.35-24.8L410.35-24.8Q410.45-25.34 410.79-25.71 411.13-26.07 411.23-26.61L411.23-26.61Q411.67-26.95 411.72-27.39L411.72-27.39Q412.35-27.83 412.5-28.56L412.5-28.56Q412.89-28.96 413.16-29.44 413.43-29.93 413.67-30.47L413.67-30.47Q414.26-30.96 414.6-31.74L414.6-31.74Q414.89-31.93 415.04-32.28 415.19-32.62 415.43-32.86L415.43-32.86Q415.82-33.5 416.04-33.91 416.26-34.33 416.5-34.77L416.5-34.77Q416.85-34.77 416.94-35.01 417.04-35.25 417.33-35.21L417.33-35.21Q417.33-35.64 417.58-35.99L417.58-35.99Q417.68-36.04 417.87-36.11 418.07-36.18 418.07-36.28L418.07-36.28Q417.97-36.87 418.12-36.96 418.26-37.06 418.36-37.16L418.36-37.16Q418.9-37.06 419.09-37.01 419.29-36.96 419.73-36.67L419.73-36.67Q420.21-36.67 420.41-36.47 420.61-36.28 420.85-36.18L420.85-36.18Q421.04-35.99 421.17-35.79 421.29-35.6 421.53-35.5L421.53-35.5Q421.92-34.96 422.36-34.33 422.8-33.69 423.19-33.15L423.19-33.15Q423.73-32.42 424.29-31.76 424.85-31.1 425.34-30.32L425.34-30.32Q425.49-30.08 425.88-29.47 426.27-28.86 426.76-28.17 427.25-27.49 427.64-26.93 428.03-26.37 428.17-26.27L428.17-26.27Q428.32-26.03 428.81-25.34 429.3-24.66 429.86-23.9 430.42-23.14 430.96-22.46 431.49-21.78 431.69-21.58L431.69-21.58Q432.23-20.85 432.5-20.39 432.76-19.92 433.01-19.38ZM421.83-10.21L421.83-10.21Q422.36-10.94 422.66-11.52 422.95-12.11 423.24-12.7L423.24-12.7Q423.73-13.28 423.83-13.53 423.93-13.77 424.07-14.01L424.07-14.01Q424.46-14.6 424.88-15.19 425.29-15.77 425.54-16.46L425.54-16.46Q425.83-16.65 425.98-16.94 426.12-17.24 426.42-17.48L426.42-17.48Q426.12-18.51 425.73-19.07 425.34-19.63 424.95-20.17L424.95-20.17Q424.8-20.41 424.66-20.65 424.51-20.9 424.37-21.14L424.37-21.14Q424.17-21.29 424.05-21.44 423.93-21.58 423.78-21.73L423.78-21.73Q423.68-21.97 423.49-22.36L423.49-22.36Q423.29-22.61 423.1-22.8 422.9-23 422.75-23.29L422.75-23.29Q422.56-23.49 422.27-23.83 421.97-24.17 421.66-24.58 421.34-25 421.09-25.37 420.85-25.73 420.7-25.98L420.7-25.98Q420.61-26.22 420.53-26.39 420.46-26.56 420.36-26.76L420.36-26.76Q420.12-27.1 419.87-27.37 419.63-27.64 419.38-27.98L419.38-27.98Q419.24-27.88 419.12-27.86 418.99-27.83 418.9-27.73L418.9-27.73Q418.55-27.1 418.14-26.56 417.72-26.03 417.33-25.39L417.33-25.39Q416.99-24.8 416.65-24.19 416.31-23.58 415.97-23L415.97-23Q415.72-22.66 415.5-22.34 415.28-22.02 415.04-21.63L415.04-21.63Q414.79-21.29 414.62-20.92 414.45-20.56 414.21-20.21L414.21-20.21Q413.82-19.73 413.57-19.34 413.33-18.95 413.09-18.41L413.09-18.41Q413.23-18.12 413.55-17.6 413.87-17.09 414.21-16.58 414.55-16.06 414.82-15.63 415.09-15.19 415.14-15.04L415.14-15.04Q415.53-14.7 415.77-14.28 416.02-13.87 416.41-13.48L416.41-13.48Q416.6-13.09 416.85-12.79 417.09-12.5 417.33-12.16L417.33-12.16Q417.58-11.82 417.97-11.16 418.36-10.5 418.75-9.81 419.14-9.13 419.53-8.54 419.92-7.96 420.17-7.81L420.17-7.81Q420.65-8.35 420.97-9.01 421.29-9.67 421.83-10.21ZM440.14-35.5L440.14-35.5Q440.33-35.55 440.48-35.64 440.63-35.74 440.82-35.74L440.82-35.74Q440.97-35.69 441.04-35.55 441.11-35.4 441.26-35.3L441.26-35.3Q441.41-35.4 441.53-35.5 441.65-35.6 441.8-35.64L441.8-35.64Q442.29-35.5 442.33-35.16L442.33-35.16Q442.58-35.06 442.77-34.94 442.97-34.81 443.21-34.77L443.21-34.77Q443.31-34.57 443.46-34.47 443.6-34.38 443.8-34.18L443.8-34.18Q444.29-34.08 445.09-33.64 445.9-33.2 446.39-32.96L446.39-32.96Q446.88-32.71 447.36-32.47 447.85-32.23 448.29-31.93L448.29-31.93Q448.73-31.69 449.17-31.37 449.61-31.05 450.1-30.86L450.1-30.86Q450.54-30.32 451.22-30.18 451.9-30.03 452.44-29.64L452.44-29.64Q452.88-29.39 453.27-29.13 453.66-28.86 454.05-28.61L454.05-28.61Q454.2-28.37 454.42-28.22 454.64-28.08 454.83-27.83L454.83-27.83Q455.81-27.29 455.96-27L455.96-27Q456.1-26.9 456.4-26.71 456.69-26.51 456.98-26.29 457.28-26.07 457.52-25.85 457.76-25.63 457.81-25.44L457.81-25.44Q457.62-25 457.62-24.73 457.62-24.46 457.42-24.27L457.42-24.27Q457.71-23.88 457.71-23.54L457.71-23.54Q457.47-22.95 456.88-22.56L456.88-22.56Q456.74-22.17 456.42-21.95 456.1-21.73 456.01-21.34L456.01-21.34Q455.62-21.09 455.54-20.95 455.47-20.8 455.37-20.65L455.37-20.65Q454.44-19.68 453.64-18.97 452.83-18.26 452.15-17.43L452.15-17.43Q451.66-17.19 451.32-16.82 450.98-16.46 450.68-16.02L450.68-16.02Q450.29-15.63 449.93-15.26 449.56-14.89 449.17-14.55L449.17-14.55Q449.07-14.36 448.85-14.23 448.63-14.11 448.54-13.87L448.54-13.87Q448-13.62 447.66-13.18 447.31-12.74 446.83-12.45L446.83-12.45 446.48-11.96Q446.34-11.87 446.07-11.65 445.8-11.43 445.53-11.16 445.26-10.89 445.07-10.64 444.87-10.4 444.82-10.25L444.82-10.25Q444.68-10.21 444.36-9.96 444.04-9.72 443.73-9.42 443.41-9.13 443.14-8.84 442.87-8.54 442.82-8.45L442.82-8.45 442.33-8.11Q442.38-6.79 442.41-5.44 442.43-4.1 442.43-2.78L442.43-2.78 442.43-1.12 442.09-0.68Q441.85-0.68 441.7-0.78 441.55-0.88 441.36-0.88L441.36-0.88Q441.16-0.88 440.99-0.68 440.82-0.49 440.67-0.39L440.67-0.39Q440.33-0.34 440.11-0.22 439.89-0.1 439.65 0L439.65 0Q439.36-0.15 439.06-0.15L439.06-0.15Q438.43 0 438.45-0.1 438.48-0.2 438.23-0.2L438.23-0.2Q437.84 0.2 437.74 0.2L437.74 0.2Q437.55 0.2 437.38 0.24 437.21 0.29 437.01 0.29L437.01 0.29Q436.82-0.1 436.69-0.51 436.57-0.93 436.23-1.32L436.23-1.32Q436.38-1.81 436.18-2L436.18-2Q436.47-2.54 436.43-3.22 436.38-3.91 436.38-4.49L436.38-4.49Q436.38-4.83 436.4-5.15 436.43-5.47 436.43-5.76L436.43-5.76Q436.43-6.35 436.33-6.96 436.23-7.57 436.23-8.2L436.23-8.2Q436.23-9.67 436.33-11.16 436.43-12.65 436.43-14.11L436.43-14.11Q436.43-14.94 436.35-15.82 436.28-16.7 436.28-17.53L436.28-17.53Q436.28-18.07 436.33-18.53 436.38-18.99 436.43-19.43L436.43-19.43Q436.43-21.68 436.5-23.75 436.57-25.83 436.57-27.88L436.57-27.88Q436.57-28.56 436.55-29.17 436.52-29.79 436.52-30.47L436.52-30.47Q436.52-30.81 436.57-31.15 436.62-31.49 436.62-31.84L436.62-31.84Q436.77-33.35 436.77-34.86L436.77-34.86 436.72-35.64Q436.91-35.94 437.3-35.94L437.3-35.94Q437.84-35.94 438.13-35.6L438.13-35.6Q438.48-35.64 438.79-35.72 439.11-35.79 439.4-35.79L439.4-35.79Q439.84-35.79 440.14-35.5ZM443.12-27.88L443.02-27.73Q443.02-27.49 442.97-27.37 442.92-27.25 442.87-27.15L442.87-27.15Q442.87-27 442.9-26.83 442.92-26.66 442.92-26.46L442.92-26.46Q442.92-25.34 442.9-24.24 442.87-23.14 442.87-22.07L442.87-22.07 442.77-19.48Q442.77-19.24 442.82-18.95 442.87-18.65 442.87-18.41L442.87-18.41Q442.87-18.16 442.82-17.92 442.77-17.68 442.77-17.43L442.77-17.43Q442.77-16.8 442.92-16.16L442.92-16.16Q443.16-16.26 443.26-16.48 443.36-16.7 443.51-16.85L443.51-16.85Q444.63-17.87 445.61-18.99 446.58-20.12 447.61-21.24L447.61-21.24Q448.49-22.17 449.12-22.75 449.76-23.34 450.1-24.17L450.1-24.17Q449.27-24.71 448.39-25.27 447.51-25.83 446.53-26.22L446.53-26.22Q446.48-26.32 446.26-26.46 446.04-26.61 445.8-26.73 445.56-26.86 445.31-26.95 445.07-27.05 444.97-27.05L444.97-27.05Q444.53-27.44 444.04-27.54L444.04-27.54Q443.7-27.54 443.46-27.66 443.21-27.78 443.12-27.88L443.12-27.88ZM467.72-12.79L467.72-12.79Q467.82-12.55 468.43-11.77 469.04-10.99 469.82-10.06 470.61-9.13 471.31-8.28 472.02-7.42 472.31-7.03L472.31-7.03Q472.85-6.35 473.36-5.69 473.88-5.03 474.32-4.3L474.32-4.3 475.2-2.83Q475.59-2.34 475.9-2 476.22-1.66 476.42-1.07L476.42-1.07Q476.51-0.68 476.51-0.54L476.51-0.54Q476.51-0.2 476.27-0.05L476.27-0.05Q475.88-0.05 475.85 0.07 475.83 0.2 475.63 0.29L475.63 0.29Q475.44 0.39 475.02 0.42 474.61 0.44 474.37 0.44L474.37 0.44Q473.93 0.44 473.27 0.42 472.61 0.39 472.22 0.54L472.22 0.54Q472.12 0.59 471.92 0.68 471.73 0.78 471.63 0.78L471.63 0.78Q471.24 0.78 471.07 0.66 470.9 0.54 470.61 0.49L470.61 0.49Q470.21 0.05 469.95-0.42 469.68-0.88 469.34-1.37L469.34-1.37Q468.99-1.71 468.65-1.98 468.31-2.25 468.07-2.59L468.07-2.59Q467.33-3.66 466.55-4.69 465.77-5.71 464.94-6.69L464.94-6.69Q464.55-7.23 464.11-7.67 463.67-8.11 463.28-8.64L463.28-8.64Q462.89-9.13 462.55-9.69 462.21-10.25 461.87-10.79L461.87-10.79Q461.57-11.23 461.08-11.94 460.6-12.65 460.01-13.35 459.42-14.06 458.84-14.7 458.25-15.33 457.86-15.67L457.86-15.67Q457.81-15.97 457.62-16.14 457.42-16.31 457.18-16.46L457.18-16.46Q457.08-16.7 456.96-16.92 456.84-17.14 456.84-17.38L456.84-17.38Q456.84-17.72 456.98-18.02L456.98-18.02Q457.08-18.21 457.1-18.38 457.13-18.55 457.23-18.75L457.23-18.75Q457.47-19.29 457.89-19.8 458.3-20.31 458.54-20.9L458.54-20.9Q458.64-21.04 458.64-21.22 458.64-21.39 458.74-21.53L458.74-21.53Q458.84-21.92 459.16-22.19 459.47-22.46 459.67-22.8L459.67-22.8Q459.91-23.19 460.13-23.61 460.35-24.02 460.6-24.51L460.6-24.51Q461.33-25.73 462.13-26.88 462.94-28.03 463.77-29.2L463.77-29.2Q464.4-30.18 465.01-31.08 465.63-31.98 466.26-32.91L466.26-32.91Q466.6-33.35 466.99-33.94 467.38-34.52 467.85-35.11 468.31-35.69 468.8-36.18 469.29-36.67 469.78-36.96L469.78-36.96Q470.51-37.01 470.75-36.65 471-36.28 471.48-36.28L471.48-36.28Q472.12-36.13 472.31-35.89 472.51-35.64 472.75-35.4L472.75-35.4Q473.44-35.4 473.85-35.16 474.27-34.91 474.66-34.42L474.66-34.42Q474.51-33.89 474.22-33.47 473.93-33.06 473.68-32.62L473.68-32.62Q473.29-32.42 473.12-32.08 472.95-31.74 472.61-31.54L472.61-31.54Q472.12-30.71 471.58-29.96 471.04-29.2 470.51-28.47L470.51-28.47Q470.21-28.03 469.9-27.69 469.58-27.34 469.34-26.95L469.34-26.95Q469.24-26.81 469.17-26.64 469.09-26.46 468.99-26.32L468.99-26.32Q468.41-25.39 467.72-24.58 467.04-23.78 466.46-22.8L466.46-22.8Q466.26-22.46 466.14-22.09 466.02-21.73 465.82-21.39L465.82-21.39Q465.63-21.09 465.26-20.61 464.89-20.12 464.55-19.56 464.21-18.99 463.94-18.48 463.67-17.97 463.67-17.63L463.67-17.63Q463.72-17.38 464.28-16.67 464.84-15.97 465.55-15.16 466.26-14.36 466.89-13.65 467.53-12.94 467.72-12.79ZM470.95-21.68L470.95-21.68Q471.29-20.95 471.68-20.41L471.68-20.41Q471.83-20.21 472.02-20.07 472.22-19.92 472.31-19.68L472.31-19.68Q472.41-19.58 472.51-19.26 472.61-18.95 472.71-18.8L472.71-18.8Q472.85-18.41 473.29-17.92 473.73-17.43 473.73-17.04L473.73-17.04Q473.73-16.8 473.63-16.5 473.54-16.21 473.49-15.97L473.49-15.97Q473.44-15.67 473.44-15.36 473.44-15.04 473.24-14.79L473.24-14.79Q473-14.55 472.71-14.5 472.41-14.45 472.17-14.26L472.17-14.26Q472.07-14.16 471.88-13.92 471.68-13.67 471.48-13.38 471.29-13.09 471.12-12.82 470.95-12.55 470.95-12.4L470.95-12.4Q470.36-12.35 470.19-12.38 470.02-12.4 469.82-12.35L469.82-12.35Q469.58-12.6 469.31-12.77 469.04-12.94 468.65-13.09L468.65-13.09Q468.55-13.48 468.21-13.99 467.87-14.5 467.63-14.84L467.63-14.84 467.29-15.28Q466.55-16.31 465.94-17.26 465.33-18.21 465.04-19.38L465.04-19.38Q465.97-20.07 466.48-20.41 466.99-20.75 467.58-21.04 468.16-21.34 468.73-21.61 469.29-21.88 469.78-22.27L469.78-22.27Q470.17-22.27 470.31-22.22 470.46-22.17 470.51-22.12 470.56-22.07 470.63-21.95 470.7-21.83 470.95-21.68ZM501.22-4.69L501.22-4.69Q501.17-3.96 501.54-3.59 501.9-3.22 502.15-2.69L502.15-2.69Q502.05-2 502.29-1.61L502.29-1.61Q502.15-1.32 502-0.95 501.86-0.59 501.56-0.34L501.56-0.34Q500.78 0 500.63 0.24 500.49 0.49 500.05 0.49L500.05 0.49Q499.8 0.73 499.51 1 499.22 1.27 498.97 1.51L498.97 1.51Q498.73 1.42 498.63 1.27 498.54 1.12 498.34 0.88L498.34 0.88Q497.85 0.73 497.46 0.37 497.07 0 496.78-0.46 496.48-0.93 496.22-1.44 495.95-1.95 495.75-2.39L495.75-2.39Q495.07-3.66 494.36-4.96 493.65-6.25 492.92-7.52L492.92-7.52Q492.53-8.15 492.16-8.81 491.8-9.47 491.41-10.16L491.41-10.16Q491.31-10.25 491.21-10.38 491.11-10.5 491.02-10.64L491.02-10.64Q490.67-11.13 490.5-11.74 490.33-12.35 489.79-12.74L489.79-12.74Q488.87-12.84 488.11-12.48 487.35-12.11 486.77-11.52L486.77-11.52Q486.82-11.18 486.82-10.89 486.82-10.6 486.82-10.3L486.82-10.3Q486.82-9.18 486.72-8.15 486.62-7.13 486.62-6.01L486.62-6.01Q486.62-5.52 486.67-5 486.72-4.49 486.82-4L486.82-4Q486.67-3.47 486.67-2.83L486.67-2.83Q486.67-2.49 486.74-2.2 486.82-1.9 486.82-1.56L486.82-1.56Q486.82-1.07 486.5-0.9 486.18-0.73 486.28-0.29L486.28-0.29Q485.69-0.05 485.16 0.2 484.62 0.44 484.03 0.54L484.03 0.54Q483.79 0.59 483.54 0.56 483.3 0.54 483.11 0.63L483.11 0.63Q482.86 0.73 482.71 1 482.57 1.27 482.32 1.27L482.32 1.27Q482.03 1.27 481.98 1.05 481.93 0.83 481.79 0.68L481.79 0.68Q481.54 0.59 481.4 0.59 481.25 0.59 481.1 0.44L481.1 0.44Q481.15 0 480.91-0.22 480.66-0.44 480.66-1.12L480.66-1.12Q480.66-1.66 480.74-2.15 480.81-2.64 480.81-3.17L480.81-3.17Q480.81-3.61 480.69-3.98 480.57-4.35 480.47-4.79L480.47-4.79Q480.42-4.98 480.47-5.18 480.52-5.37 480.52-5.57L480.52-5.57Q480.52-6.45 480.44-7.35 480.37-8.25 480.37-9.13L480.37-9.13Q480.37-9.47 480.37-9.77 480.37-10.06 480.42-10.35L480.42-10.35Q480.52-10.64 480.59-10.84 480.66-11.04 480.66-11.33L480.66-11.33Q480.66-12.26 480.47-13.16 480.27-14.06 480.27-14.94L480.27-14.94Q480.27-15.43 480.3-15.94 480.32-16.46 480.32-16.94L480.32-16.94Q480.32-18.36 480.27-19.73 480.22-21.09 480.22-22.46L480.22-22.46Q480.22-23.44 480.27-24.39 480.32-25.34 480.32-26.32L480.32-26.32Q480.32-27.54 480.22-28.74 480.13-29.93 480.13-31.2L480.13-31.2Q480.13-31.64 480.08-31.79 480.03-31.93 479.93-31.96 479.83-31.98 479.71-32.01 479.59-32.03 479.49-32.18L479.49-32.18Q479.49-32.47 479.74-32.59 479.98-32.71 479.98-33.4L479.98-33.4Q479.98-33.79 479.91-34.18 479.83-34.57 479.83-34.96L479.83-34.96Q479.83-35.55 480.08-36.13 480.32-36.72 480.52-37.26L480.52-37.26Q481.1-37.3 481.32-37.26 481.54-37.21 481.79-37.3L481.79-37.3Q481.93-36.77 482.42-36.74 482.91-36.72 483.3-36.62L483.3-36.62Q483.74-36.57 484.16-36.4 484.57-36.23 484.96-36.23L484.96-36.23Q485.06-35.94 485.38-35.82 485.69-35.69 486.04-35.6L486.04-35.6Q486.43-35.64 486.65-35.94 486.87-36.23 487.26-36.23L487.26-36.23Q487.55-36.23 487.94-35.82 488.33-35.4 488.53-35.16L488.53-35.16Q488.72-35.01 489.26-34.52 489.79-34.03 490.43-33.52 491.06-33.01 491.6-32.54 492.14-32.08 492.29-32.03L492.29-32.03Q494.29-30.03 496.02-28.39 497.75-26.76 499.8-25.44L499.8-25.44Q499.85-25.29 499.93-25.2 500-25.1 500.1-24.95L500.1-24.95Q500.1-24.56 499.95-24.37 499.8-24.17 499.8-23.88L499.8-23.88Q499.8-23.73 499.88-23.58 499.95-23.44 499.95-23.29L499.95-23.29Q500-23.1 499.98-22.92 499.95-22.75 499.95-22.56L499.95-22.56Q499.95-22.07 500.27-21.68 500.59-21.29 500.59-20.8L500.59-20.8Q500.49-20.36 500.2-20.26 499.9-20.17 499.71-20.02L499.71-20.02Q499.61-19.92 499.54-19.78 499.46-19.63 499.37-19.53L499.37-19.53Q498.29-19.04 497.8-18.63 497.31-18.21 496.78-17.82L496.78-17.82Q496.63-17.72 496.29-17.5 495.95-17.29 495.61-17.07 495.26-16.85 495-16.6 494.73-16.36 494.73-16.21L494.73-16.21Q494.73-15.87 495.14-15.26 495.56-14.65 495.75-14.31L495.75-14.31Q496.29-13.43 496.73-12.57 497.17-11.72 497.71-10.89L497.71-10.89Q498.68-9.38 499.54-7.81 500.39-6.25 501.22-4.69ZM493.26-22.85L493.26-22.85Q492.14-24.27 490.84-25.42 489.55-26.56 488.38-27.83L488.38-27.83 487.84-27.93Q487.55-28.42 487.18-28.78 486.82-29.15 486.43-29.54L486.43-29.54Q486.47-29 486.47-28.52 486.47-28.03 486.47-27.49L486.47-27.49Q486.47-25.93 486.4-24.44 486.33-22.95 486.33-21.44L486.33-21.44Q486.33-19.92 486.47-18.55L486.47-18.55Q487.5-18.55 488.33-19.14L488.33-19.14Q488.67-19.38 488.96-19.65 489.26-19.92 489.6-20.17L489.6-20.17Q489.99-20.41 490.5-20.75 491.02-21.09 491.53-21.44 492.04-21.78 492.5-22.14 492.97-22.51 493.26-22.85Z" opacity="1" transform="matrix(1,0,0,1,0,0)" fill="#264f0b" class="slogan-text-1" data-fill-palette-color="secondary" id="text-1"></path></svg></g></svg></g></svg></g></svg></g></svg></g></svg></g></svg></g><g><path d="M0 123.6c0-68.262 55.338-123.6 123.6-123.6 41.629 0 78.451 20.58 100.847 52.121l-4.673 0c-21.84-29.338-56.788-48.341-96.174-48.341-66.175 0-119.82 53.645-119.82 119.82 0 66.175 53.645 119.82 119.82 119.82 39.386 0 74.334-19.003 96.174-48.341l4.673 0c-22.396 31.541-59.218 52.121-100.847 52.121-68.262 0-123.6-55.338-123.6-123.6z" fill="#264f0b" stroke="transparent" data-fill-palette-color="tertiary"></path></g></svg></g><defs></defs></svg><rect width="395.52" height="247.2" fill="none" stroke="none" visibility="hidden"></rect></g></svg></g></svg>