<svg xmlns="http://www.w3.org/2000/svg" version="1.1" xmlns:xlink="http://www.w3.org/1999/xlink" xmlns:svgjs="http://svgjs.dev/svgjs" width="1500" height="1500" viewBox="0 0 1500 1500"><rect width="1500" height="1500" fill="#ccded7"></rect><g transform="matrix(0.6666666666666666,0,0,0.6666666666666666,250.00007343750008,187.66666666666674)"><svg viewBox="0 0 320 360" data-background-color="#ccded7" preserveAspectRatio="xMidYMid meet" height="1687" width="1500" xmlns="http://www.w3.org/2000/svg" xmlns:xlink="http://www.w3.org/1999/xlink"><g id="tight-bounds" transform="matrix(1,0,0,1,0.000023499999997511622,0)"><svg viewBox="0 0 320 360" height="360" width="320"><g><svg></svg></g><g><svg viewBox="0 0 320 360" height="360" width="320"><g><path transform="translate(-74.99272,-51.79039) scale(4.65793,4.65793)" d="M20.6 59.9l0.8 1-0.4-1.3c-0.1-0.6-0.8 0.1-0.4 0.3M21.5 59.3c0.3 0.5 0.6 1 0.6 1.5 0 0.7 0.6 1 1.1 1.2-0.7-0.8-1.1-3-1.7-2.7M59.9 16.9c1.7 0 3.3-0.2 5.1 0.2 4.4 1.1 8.1 3.3 10.6 6.4l7 11.2c0.3 2.8 0.9 5.9 0.8 9.3 0.7 0 0.6-1 1.4-1.2-0.8 2-1.2 4.5-1.4 7.4-0.5-1.6 0-4 0.1-5.3-0.7 1.1-1.1 0.3-1.1-0.2 0.1-0.8-0.3-0.7-0.6-1-1.1-1-1.8-2.1-2.6-3.8 0.5-1.3 0.6-3.2-1-4.2-0.5-0.3-1.1-0.8-1.4-1.6-0.4-1.1-1.1-2.4-0.9-4.1 0.1-0.5-1.5 1.1-2.4 0.4-3.9-2.7-7.8-5.8-12.5-8.4-2.5 0-4.3-0.9-5.2-2-0.8-1-0.2-2.3 1-2.4 0.7 0 1.5-0.2 2.1 0.2 0.1-0.4 0.5-0.9 1-0.9M50 14.6l0.2 0.1c1 0.2 1.5 1.6 2.6 1.1 0 0.7 0.1 1.4-0.1 1.9-0.3 0.8-1.2 0.8-1.9 0.8-6.7-0.4-10.6 2.4-14.7 4.8-1.1 0.7-2.3 1.2-3.2 2.1-4.3 4-9 7.7-10.1 15.1l-0.9 8.2c-0.1 0.9-1.1 1.8-0.9 2.9l0.7 4.9c-0.7-0.7-1.1 0.2-0.9 0.6 0.1 0.3 0.5 1.3 1.1 0.4 0.8 1.5 1.6 4.4 2.7 5.7 3.4 4 7.8 7.6 11.4 11.2 0.9-0.2 1.6-0.2 1.8-0.8 0.3 0.6-0.3 1.2-0.8 1.3 1.6 1 3.4 1.9 5.8 2.1 3.1 0.2 6 0.7 8.7 1.4 1.4-0.4 2.8-0.6 4.3-0.7 0.5 0 0.8-0.8 1.4-1l0.1-1c0.6 0.9 0.5-0.3 0.1-0.9 0.7 0.6 0.9 1.1 1.2 1.5 0-0.3 0.8-1.4 0.8-0.1l0.2-1.3c0.3-0.2 0.4 1.1 0.7 0.2 0.3-0.9 0.9-0.2 1.5-0.5-0.2 0.4-0.1 1.2 0.6 0.7l0.8-0.7c0.5 1.2 1.3 0.7 1.7 0.5 4.4-2.8 8.8-6.1 13-9.4l-0.1 1.3 0.5-1.6c0.5 0.5 0.9 0.1 1.1-0.2 0.6-1 1.4-2 2.7-2.9-1.6 4.3-3.5 7.7-5.9 10.5l-1 1.2c0 0.7-0.2 1.6-1 1.7-0.4 0.1-1.2-0.2-1.8 0.4-0.3 0.4 0.7 1.2-0.1 0.6-0.7-0.5-1.4 0-2.2 0.2-0.6 0.2 0.4 0.8 0.6 1.2 0.2 0.4 0.4 0.8 0.3 1.3l-1.1-1.2c-1.3 0.7-2.1 2-3.2 3-0.5 0.4-0.3 1.1-0.3 1.7-0.7 0-1.5-0.2-1.9 0.2-0.3 0.4-0.2 1-0.2 1.6-1-0.1-1.1-1.6-2-1.3-0.9 0.2-1.9 0.3-2.7 0.8 0.6 1.2-1 0.5-0.8 0.7-1.5-0.9-2.8-1.6-4.4-1-3.4-1.1-7.6-0.6-10.7-0.2 0-0.5 0.1-1-0.1-1.1-0.2 0.5-0.8 0.3-0.7 0.3-1.9-1.3-3.8-2.1-5.8-3.2-1.8 0.2-3.5-0.7-4-1.2-1.4-1.3-3-0.6-4.3-0.9-2.8-0.7-3.8-3.6-4.1-5.6-0.2-1-1-1.4-1.3-1.3-1.3-4.2-3.3-8-4.9-11.9-0.4-1-0.3-2-0.3-3.1 0.5 0.2 1 0.1 0.9-0.6-0.5-3.3-1.7-5.8-3-8.2 0.7-3.4 0.8-7.4 2.4-10.4 1.4-2.7 4-4.1 5.8-6.4 0.6-0.8 0.6-1.9 1.2-2.6 2-2 4-4.1 6.2-5.9 1-0.8 2.2 0 3.7-0.3 0.5-1.8 2.5-3.4 4.4-2.9 0.8 0.2 2.4-1.9 2.9-2.1 0.8-0.3 0.4 0.8 0.4 1.5 1.9-1.5 4.5-2.3 6.9-3.2" fill="#106a46" fill-rule="nonzero" stroke="none" stroke-width="1" stroke-linecap="butt" stroke-linejoin="miter" stroke-miterlimit="10" stroke-dasharray="" stroke-dashoffset="0" font-family="none" font-weight="none" font-size="none" text-anchor="none" style="mix-blend-mode: normal" data-fill-palette-color="tertiary"></path></g><g transform="matrix(1,0,0,1,64,103.99694230403678)"><svg viewBox="0 0 192 152.00611539192644" height="152.00611539192644" width="192"><g><svg viewBox="0 0 192 152.00611539192644" height="152.00611539192644" width="192"><g><svg viewBox="0 0 192 152.00611539192644" height="152.00611539192644" width="192"><g><svg viewBox="0 0 192 86.19687198520955" height="86.19687198520955" width="192"><g id="textblocktransform"><svg viewBox="0 0 192 86.19687198520955" height="86.19687198520955" width="192" id="textblock"><g><svg viewBox="0 0 192 52.39378238341969" height="52.39378238341969" width="192"><g transform="matrix(1,0,0,1,0,0)"><svg width="192" viewBox="0.65 -39 144.73999999999998 39.5" height="52.39378238341969" data-palette-color="#106a46"><path d="M11.85-24.95L8.4-24 13.55-6 14.15-3.05 14.4-3.05 15-6 20.85-27.5 24.45-27.5 30.5-6 31.1-3.05 31.3-3.05 31.9-6 36.9-24 33.65-24.95 33.65-27 43.15-27 43.15-24.95 40.45-24 33 0.5 27.85 0.5 21.9-19 16.1 0.5 10.95 0.5 3.3-24 0.65-24.95 0.65-27 11.85-27 11.85-24.95ZM45.3-5.85L45.3-5.85Q45.3-9.75 48.95-12 52.6-14.25 61.05-15.5L61.05-15.5Q60.85-18.45 60.5-20.1 60.15-21.75 59.6-22.75L59.6-22.75Q58.9-24.05 57.65-24.68 56.4-25.3 54.95-25.3L54.95-25.3Q53.55-25.3 52.42-24.8 51.3-24.3 50.9-23.45L50.9-23.45Q51.6-22.95 51.92-22.15 52.25-21.35 52.25-20.65L52.25-20.65Q52.25-19.4 51.42-18.68 50.6-17.95 49.4-17.95L49.4-17.95Q48.2-17.95 47.42-18.75 46.65-19.55 46.65-21L46.65-21Q46.65-23.1 48.1-24.55 49.55-26 51.77-26.75 54-27.5 56.25-27.5L56.25-27.5Q58.3-27.5 60.02-26.88 61.75-26.25 62.95-25.05L62.95-25.05Q66.05-21.95 66.05-14.05L66.05-14.05 66.05-6.8Q66.05-4.35 66.37-3.4 66.7-2.45 67.8-2.45L67.8-2.45 70.05-2.45 70.05-0.95Q66.45 0.5 64.45 0.5L64.45 0.5Q62.9 0.5 62.37-0.63 61.85-1.75 61.85-4.95L61.85-4.95 61.65-4.95Q60.1-2.4 57.55-0.95 55 0.5 52.05 0.5L52.05 0.5Q48.9 0.5 47.1-1.2 45.3-2.9 45.3-5.85ZM54.15-2.4L54.15-2.4Q55.55-2.4 57.07-3.13 58.6-3.85 59.65-5.15L59.65-5.15Q60.45-6.15 60.82-7.53 61.2-8.9 61.2-10.75L61.2-10.75Q61.2-11.6 61.15-12.43 61.1-13.25 61-14L61-14Q56.95-13.2 54.65-12.28 52.35-11.35 51.4-10.08 50.45-8.8 50.45-6.9L50.45-6.9Q50.45-4.75 51.42-3.58 52.4-2.4 54.15-2.4ZM88.75 0L88.75-2.05 91.7-3 84-13.4 80.2-10.2 80.2-3 84.05-2.05 84.05 0 71.5 0 71.5-2.05 75.34-3 75.34-36 71.5-36.95 71.5-39 80.2-39 80.2-12.55 90.84-24 87.55-24.95 87.55-27 98.3-27 98.3-24.95 94.65-24 87.09-16.25 97.05-2.9 99.7-2.05 99.7 0 88.75 0ZM105.69-3L105.69-24 101.84-24.95 101.84-27 110.54-27 110.54-3 114.39-2.05 114.39 0 101.84 0 101.84-2.05 105.69-3ZM104.99-35.05L104.99-35.05Q104.99-36.5 105.84-37.35 106.69-38.2 108.09-38.2L108.09-38.2Q109.54-38.2 110.39-37.35 111.24-36.5 111.24-35.05L111.24-35.05Q111.24-33.65 110.39-32.8 109.54-31.95 108.09-31.95L108.09-31.95Q106.64-31.95 105.82-32.77 104.99-33.6 104.99-35.05ZM117.04-2.05L120.89-3 120.89-36 117.04-36.95 117.04-39 125.74-39 125.74-3 129.59-2.05 129.59 0 117.04 0 117.04-2.05ZM136.69-3L136.69-24 132.84-24.95 132.84-27 141.54-27 141.54-3 145.39-2.05 145.39 0 132.84 0 132.84-2.05 136.69-3ZM135.99-35.05L135.99-35.05Q135.99-36.5 136.84-37.35 137.69-38.2 139.09-38.2L139.09-38.2Q140.54-38.2 141.39-37.35 142.24-36.5 142.24-35.05L142.24-35.05Q142.24-33.65 141.39-32.8 140.54-31.95 139.09-31.95L139.09-31.95Q137.64-31.95 136.81-32.77 135.99-33.6 135.99-35.05Z" opacity="1" transform="matrix(1,0,0,1,0,0)" fill="#106a46" class="wordmark-text-0" data-fill-palette-color="primary" id="text-0"></path></svg></g></svg></g><g transform="matrix(1,0,0,1,0,60.03929268393782)"><svg viewBox="0 0 192 26.15757930127174" height="26.15757930127174" width="192"><g transform="matrix(1,0,0,1,0,0)"><svg width="192" viewBox="2.15 -36.75 342 46.6" height="26.15757930127174" data-palette-color="#106a46"><path d="M2.15 0L2.15 0 2.15-33.15Q2.15-34.1 2.35-34.48 2.55-34.85 3.43-34.93 4.3-35 6.3-35L6.3-35 6.3-0.8Q6.3-0.4 6.1-0.25 5.9-0.1 5.08-0.05 4.25 0 2.15 0ZM10.7 0L10.7 0 10.7-23.8Q11.7-24.25 13.05-24.63 14.4-25 15.85-25.25 17.3-25.5 18.65-25.5L18.65-25.5Q21.25-25.5 22.8-24.83 24.35-24.15 25-22.7 25.65-21.25 25.65-18.8L25.65-18.8 25.65-0.8Q25.65-0.4 25.45-0.25 25.25-0.1 24.4-0.05 23.55 0 21.45 0L21.45 0 21.45-17.6Q21.45-19.95 20.9-20.95 20.35-21.95 18.5-21.95L18.5-21.95Q17.65-21.95 16.6-21.75 15.55-21.55 14.75-21.05L14.75-21.05 14.75-0.8Q14.75-0.4 14.57-0.25 14.4-0.1 13.55-0.05 12.7 0 10.7 0ZM36.65 0.5L36.65 0.5Q34.55 0.5 33.52-0.43 32.5-1.35 32.2-3.03 31.9-4.7 31.9-6.95L31.9-6.95 31.9-21.5 28.5-21.5Q28.5-23.1 28.52-23.83 28.55-24.55 28.75-24.78 28.95-25 29.35-25L29.35-25 31.9-25 31.9-32.6Q31.9-33.35 32.22-33.63 32.55-33.9 33.42-33.95 34.3-34 35.95-34L35.95-34 35.95-25 41.05-25Q41.05-23.45 41.02-22.7 41-21.95 40.82-21.73 40.65-21.5 40.25-21.5L40.25-21.5 35.95-21.5 35.95-6.95Q35.95-5.9 36.02-4.98 36.09-4.05 36.47-3.53 36.84-3 37.75-3L37.75-3Q38.59-3 39.25-3.18 39.9-3.35 40.65-3.75L40.65-3.75Q40.75-3.35 40.84-2.85 40.95-2.35 40.95-1.7L40.95-1.7Q40.95-0.8 40.27-0.33 39.59 0.15 38.62 0.33 37.65 0.5 36.65 0.5ZM50.74 0.5L50.74 0.5Q49.04 0.5 47.57 0.03 46.09-0.45 45.02-1.7 43.94-2.95 43.37-5.25 42.79-7.55 42.79-11.2L42.79-11.2Q42.79-15.9 43.54-18.75 44.29-21.6 45.54-23.05 46.79-24.5 48.39-25 49.99-25.5 51.64-25.5L51.64-25.5Q54.79-25.5 56.39-23.5 57.99-21.5 57.99-17.45L57.99-17.45Q57.99-15.8 57.87-14.05 57.74-12.3 57.39-10.95L57.39-10.95Q55.69-10.6 53.59-10.45 51.49-10.3 49.59-10.23 47.69-10.15 46.47-10.15 45.24-10.15 45.24-10.15L45.24-10.15 45.29-13.45Q45.29-13.45 46.24-13.43 47.19-13.4 48.57-13.43 49.94-13.45 51.37-13.58 52.79-13.7 53.79-14L53.79-14Q53.94-14.7 53.99-15.5 54.04-16.3 54.04-17L54.04-17Q53.99-19.7 53.42-20.83 52.84-21.95 51.19-21.95L51.19-21.95Q50.34-21.95 49.57-21.48 48.79-21 48.19-19.83 47.59-18.65 47.27-16.6 46.94-14.55 46.94-11.35L46.94-11.35Q46.94-9 47.22-7.45 47.49-5.9 48.07-5.05 48.64-4.2 49.52-3.83 50.39-3.45 51.64-3.45L51.64-3.45Q53.14-3.45 54.62-3.85 56.09-4.25 57.29-5L57.29-5Q57.54-4.4 57.62-3.63 57.69-2.85 57.69-2.25L57.69-2.25Q57.69-1.5 56.74-0.85 55.79-0.2 54.22 0.15 52.64 0.5 50.74 0.5ZM61.54 0L61.54 0 61.54-23.25Q62.99-24.3 64.74-24.9 66.49-25.5 68.34-25.5L68.34-25.5Q70.29-25.5 71.07-24.98 71.84-24.45 71.84-23.4L71.84-23.4Q71.84-23 71.74-22.33 71.64-21.65 71.39-21L71.39-21Q70.84-21.3 70.24-21.45 69.64-21.6 68.99-21.6L68.99-21.6Q68.14-21.6 67.27-21.33 66.39-21.05 65.69-20.5L65.69-20.5 65.64-0.8Q65.64-0.4 65.47-0.25 65.29-0.1 64.44-0.05 63.59 0 61.54 0ZM74.74 0L74.74 0 74.74-23.85Q76.39-24.6 78.31-25.05 80.24-25.5 82.29-25.5L82.29-25.5Q85.24-25.5 86.59-24.2 87.94-22.9 88.31-20.5 88.69-18.1 88.69-14.75L88.69-14.75 88.69-0.8Q88.69-0.4 88.49-0.25 88.29-0.1 87.44-0.05 86.59 0 84.64 0L84.64 0 84.64-18.6Q84.64-19.85 84.51-20.58 84.39-21.3 83.86-21.63 83.34-21.95 82.19-21.95L82.19-21.95Q81.34-21.95 80.51-21.75 79.69-21.55 78.79-21.1L78.79-21.1 78.79-0.8Q78.79-0.4 78.59-0.25 78.39-0.1 77.56-0.05 76.74 0 74.74 0ZM84.64 0L84.64 0 84.64-21.8Q85.09-22.9 86.41-23.73 87.74-24.55 89.51-25.03 91.29-25.5 92.94-25.5L92.94-25.5Q95.44-25.5 96.64-24.68 97.84-23.85 98.19-22.28 98.54-20.7 98.54-18.45L98.54-18.45 98.54-0.8Q98.54-0.4 98.34-0.25 98.14-0.1 97.29-0.05 96.44 0 94.49 0L94.49 0 94.49-18.5Q94.49-20.3 94.01-21.1 93.54-21.9 92.04-21.9L92.04-21.9Q91.24-21.9 90.39-21.7 89.54-21.5 88.69-20.95L88.69-20.95 88.69-0.8Q88.69-0.4 88.54-0.25 88.39-0.1 87.54-0.05 86.69 0 84.64 0ZM104.24 0L104.24 0 104.24-23.15Q104.24-24.1 104.59-24.48 104.94-24.85 105.84-24.93 106.74-25 108.39-25L108.39-25 108.39-0.8Q108.39-0.4 108.21-0.25 108.04-0.1 107.19-0.05 106.34 0 104.24 0ZM106.19-28.45L106.19-28.45Q105.24-28.5 104.69-29.18 104.14-29.85 104.14-31.6L104.14-31.6Q104.19-32.95 104.74-33.77 105.29-34.6 106.49-34.6L106.49-34.6Q107.64-34.6 108.09-33.95 108.54-33.3 108.49-31.7L108.49-31.7Q108.49-30.2 107.91-29.33 107.34-28.45 106.19-28.45ZM119.78 0.5L119.78 0.5Q117.68 0.5 116.66-0.43 115.63-1.35 115.33-3.03 115.03-4.7 115.03-6.95L115.03-6.95 115.03-21.5 111.63-21.5Q111.63-23.1 111.66-23.83 111.68-24.55 111.88-24.78 112.08-25 112.48-25L112.48-25 115.03-25 115.03-32.6Q115.03-33.35 115.36-33.63 115.68-33.9 116.56-33.95 117.43-34 119.08-34L119.08-34 119.08-25 124.18-25Q124.18-23.45 124.16-22.7 124.13-21.95 123.96-21.73 123.78-21.5 123.38-21.5L123.38-21.5 119.08-21.5 119.08-6.95Q119.08-5.9 119.16-4.98 119.23-4.05 119.61-3.53 119.98-3 120.88-3L120.88-3Q121.73-3 122.38-3.18 123.03-3.35 123.78-3.75L123.78-3.75Q123.88-3.35 123.98-2.85 124.08-2.35 124.08-1.7L124.08-1.7Q124.08-0.8 123.41-0.33 122.73 0.15 121.76 0.33 120.78 0.5 119.78 0.5ZM130.98 0.5L130.98 0.5Q128.88 0.5 127.86-0.43 126.83-1.35 126.53-3.03 126.23-4.7 126.23-6.95L126.23-6.95 126.23-21.5 122.83-21.5Q122.83-23.1 122.86-23.83 122.88-24.55 123.08-24.78 123.28-25 123.68-25L123.68-25 126.23-25 126.23-32.6Q126.23-33.35 126.56-33.63 126.88-33.9 127.76-33.95 128.63-34 130.28-34L130.28-34 130.28-25 135.38-25Q135.38-23.45 135.36-22.7 135.33-21.95 135.16-21.73 134.98-21.5 134.58-21.5L134.58-21.5 130.28-21.5 130.28-6.95Q130.28-5.9 130.36-4.98 130.43-4.05 130.81-3.53 131.18-3 132.08-3L132.08-3Q132.93-3 133.58-3.18 134.23-3.35 134.98-3.75L134.98-3.75Q135.08-3.35 135.18-2.85 135.28-2.35 135.28-1.7L135.28-1.7Q135.28-0.8 134.61-0.33 133.93 0.15 132.96 0.33 131.98 0.5 130.98 0.5ZM145.08 0.5L145.08 0.5Q143.38 0.5 141.9 0.03 140.43-0.45 139.35-1.7 138.28-2.95 137.7-5.25 137.13-7.55 137.13-11.2L137.13-11.2Q137.13-15.9 137.88-18.75 138.63-21.6 139.88-23.05 141.13-24.5 142.73-25 144.33-25.5 145.98-25.5L145.98-25.5Q149.13-25.5 150.73-23.5 152.33-21.5 152.33-17.45L152.33-17.45Q152.33-15.8 152.2-14.05 152.08-12.3 151.73-10.95L151.73-10.95Q150.03-10.6 147.93-10.45 145.83-10.3 143.93-10.23 142.03-10.15 140.8-10.15 139.58-10.15 139.58-10.15L139.58-10.15 139.63-13.45Q139.63-13.45 140.58-13.43 141.53-13.4 142.9-13.43 144.28-13.45 145.7-13.58 147.13-13.7 148.13-14L148.13-14Q148.28-14.7 148.33-15.5 148.38-16.3 148.38-17L148.38-17Q148.33-19.7 147.75-20.83 147.18-21.95 145.53-21.95L145.53-21.95Q144.68-21.95 143.9-21.48 143.13-21 142.53-19.83 141.93-18.65 141.6-16.6 141.28-14.55 141.28-11.35L141.28-11.35Q141.28-9 141.55-7.45 141.83-5.9 142.4-5.05 142.98-4.2 143.85-3.83 144.73-3.45 145.98-3.45L145.98-3.45Q147.48-3.45 148.95-3.85 150.43-4.25 151.63-5L151.63-5Q151.88-4.4 151.95-3.63 152.03-2.85 152.03-2.25L152.03-2.25Q152.03-1.5 151.08-0.85 150.13-0.2 148.55 0.15 146.98 0.5 145.08 0.5ZM155.88 0L155.88 0 155.88-23.8Q156.88-24.25 158.23-24.63 159.58-25 161.03-25.25 162.48-25.5 163.83-25.5L163.83-25.5Q166.43-25.5 167.98-24.83 169.53-24.15 170.18-22.7 170.83-21.25 170.83-18.8L170.83-18.8 170.83-0.8Q170.83-0.4 170.63-0.25 170.43-0.1 169.58-0.05 168.73 0 166.63 0L166.63 0 166.63-17.6Q166.63-19.95 166.08-20.95 165.53-21.95 163.68-21.95L163.68-21.95Q162.83-21.95 161.78-21.75 160.73-21.55 159.93-21.05L159.93-21.05 159.93-0.8Q159.93-0.4 159.75-0.25 159.58-0.1 158.73-0.05 157.88 0 155.88 0ZM181.82 0.5L181.82 0.5Q179.72 0.5 178.7-0.43 177.67-1.35 177.37-3.03 177.07-4.7 177.07-6.95L177.07-6.95 177.07-21.5 173.67-21.5Q173.67-23.1 173.7-23.83 173.72-24.55 173.92-24.78 174.12-25 174.52-25L174.52-25 177.07-25 177.07-32.6Q177.07-33.35 177.4-33.63 177.72-33.9 178.6-33.95 179.47-34 181.12-34L181.12-34 181.12-25 186.22-25Q186.22-23.45 186.2-22.7 186.17-21.95 186-21.73 185.82-21.5 185.42-21.5L185.42-21.5 181.12-21.5 181.12-6.95Q181.12-5.9 181.2-4.98 181.27-4.05 181.65-3.53 182.02-3 182.92-3L182.92-3Q183.77-3 184.42-3.18 185.07-3.35 185.82-3.75L185.82-3.75Q185.92-3.35 186.02-2.85 186.12-2.35 186.12-1.7L186.12-1.7Q186.12-0.8 185.45-0.33 184.77 0.15 183.8 0.33 182.82 0.5 181.82 0.5ZM203.62 0L197.37 0 197.37-34.05Q197.37-34.5 197.64-34.75 197.92-35 198.72-35L198.72-35 203.57-35Q206.02-35 207.87-34.25 209.72-33.5 210.92-31.73 212.12-29.95 212.74-26.9 213.37-23.85 213.37-19.3L213.37-19.3Q213.37-13.8 212.72-10.08 212.07-6.35 210.79-4.15 209.52-1.95 207.72-0.98 205.92 0 203.62 0L203.62 0ZM201.42-31.25L201.42-3.85 203.67-3.85Q204.67-3.85 205.57-4.4 206.47-4.95 207.19-6.58 207.92-8.2 208.34-11.35 208.77-14.5 208.77-19.7L208.77-19.7Q208.77-23.15 208.44-25.4 208.12-27.65 207.49-28.95 206.87-30.25 205.92-30.75 204.97-31.25 203.72-31.25L203.72-31.25 201.42-31.25ZM223.97 0.5L223.97 0.5Q222.27 0.5 220.79 0.03 219.32-0.45 218.24-1.7 217.17-2.95 216.59-5.25 216.02-7.55 216.02-11.2L216.02-11.2Q216.02-15.9 216.77-18.75 217.52-21.6 218.77-23.05 220.02-24.5 221.62-25 223.22-25.5 224.87-25.5L224.87-25.5Q228.02-25.5 229.62-23.5 231.22-21.5 231.22-17.45L231.22-17.45Q231.22-15.8 231.09-14.05 230.97-12.3 230.62-10.95L230.62-10.95Q228.92-10.6 226.82-10.45 224.72-10.3 222.82-10.23 220.92-10.15 219.69-10.15 218.47-10.15 218.47-10.15L218.47-10.15 218.52-13.45Q218.52-13.45 219.47-13.43 220.42-13.4 221.79-13.43 223.17-13.45 224.59-13.58 226.02-13.7 227.02-14L227.02-14Q227.17-14.7 227.22-15.5 227.27-16.3 227.27-17L227.27-17Q227.22-19.7 226.64-20.83 226.07-21.95 224.42-21.95L224.42-21.95Q223.57-21.95 222.79-21.48 222.02-21 221.42-19.83 220.82-18.65 220.49-16.6 220.17-14.55 220.17-11.35L220.17-11.35Q220.17-9 220.44-7.45 220.72-5.9 221.29-5.05 221.87-4.2 222.74-3.83 223.62-3.45 224.87-3.45L224.87-3.45Q226.37-3.45 227.84-3.85 229.32-4.25 230.52-5L230.52-5Q230.77-4.4 230.84-3.63 230.92-2.85 230.92-2.25L230.92-2.25Q230.92-1.5 229.97-0.85 229.02-0.2 227.44 0.15 225.87 0.5 223.97 0.5ZM240.31 0.3L240.31 0.3Q239.56 0.3 239.19-0.4 238.81-1.1 238.51-2.15L238.51-2.15 233.41-23.75Q233.31-24.4 233.46-24.65 233.61-24.9 234.56-24.95 235.51-25 237.76-25L237.76-25 239.36-17Q239.71-15.05 240.09-12.85 240.46-10.65 240.74-8.72 241.01-6.8 241.16-5.58 241.31-4.35 241.31-4.35L241.31-4.35 241.41-4.35Q241.41-4.35 241.56-5.58 241.71-6.8 241.96-8.72 242.21-10.65 242.56-12.85 242.91-15.05 243.31-17L243.31-17 244.66-24.1Q244.76-24.55 244.94-24.73 245.11-24.9 245.99-24.95 246.86-25 248.91-25L248.91-25 243.16 0.15Q242.61 0.25 241.71 0.28 240.81 0.3 240.31 0.3ZM258.31 0.5L258.31 0.5Q256.61 0.5 255.14 0.03 253.66-0.45 252.59-1.7 251.51-2.95 250.94-5.25 250.36-7.55 250.36-11.2L250.36-11.2Q250.36-15.9 251.11-18.75 251.86-21.6 253.11-23.05 254.36-24.5 255.96-25 257.56-25.5 259.21-25.5L259.21-25.5Q262.36-25.5 263.96-23.5 265.56-21.5 265.56-17.45L265.56-17.45Q265.56-15.8 265.44-14.05 265.31-12.3 264.96-10.95L264.96-10.95Q263.26-10.6 261.16-10.45 259.06-10.3 257.16-10.23 255.26-10.15 254.04-10.15 252.81-10.15 252.81-10.15L252.81-10.15 252.86-13.45Q252.86-13.45 253.81-13.43 254.76-13.4 256.14-13.43 257.51-13.45 258.94-13.58 260.36-13.7 261.36-14L261.36-14Q261.51-14.7 261.56-15.5 261.61-16.3 261.61-17L261.61-17Q261.56-19.7 260.99-20.83 260.41-21.95 258.76-21.95L258.76-21.95Q257.91-21.95 257.14-21.48 256.36-21 255.76-19.83 255.16-18.65 254.84-16.6 254.51-14.55 254.51-11.35L254.51-11.35Q254.51-9 254.79-7.45 255.06-5.9 255.64-5.05 256.21-4.2 257.09-3.83 257.96-3.45 259.21-3.45L259.21-3.45Q260.71-3.45 262.19-3.85 263.66-4.25 264.86-5L264.86-5Q265.11-4.4 265.19-3.63 265.26-2.85 265.26-2.25L265.26-2.25Q265.26-1.5 264.31-0.85 263.36-0.2 261.79 0.15 260.21 0.5 258.31 0.5ZM269.16 0L269.16 0 269.16-34.9Q269.16-35.85 269.48-36.23 269.81-36.6 270.71-36.68 271.61-36.75 273.21-36.75L273.21-36.75 273.21-0.8Q273.21-0.4 273.03-0.25 272.86-0.1 272.03-0.05 271.21 0 269.16 0ZM284.7 0.5L284.7 0.5Q282.81 0.5 281.33 0.03 279.86-0.45 278.86-1.8 277.86-3.15 277.36-5.73 276.86-8.3 276.86-12.5L276.86-12.5Q276.86-19.35 279.06-22.43 281.25-25.5 285.15-25.5L285.15-25.5Q287.81-25.5 289.53-24.4 291.25-23.3 292.11-20.5 292.95-17.7 292.95-12.65L292.95-12.65Q292.95-5.65 290.86-2.58 288.75 0.5 284.7 0.5ZM284.81-2.95L284.81-2.95Q285.9-2.95 286.73-3.73 287.56-4.5 288.06-6.6 288.56-8.7 288.56-12.6L288.56-12.6Q288.56-16.6 288.15-18.63 287.75-20.65 287-21.35 286.25-22.05 285-22.05L285-22.05Q283.9-22.05 283.06-21.28 282.2-20.5 281.73-18.4 281.25-16.3 281.25-12.4L281.25-12.4Q281.25-9.35 281.5-7.45 281.75-5.55 282.18-4.58 282.61-3.6 283.31-3.28 284-2.95 284.81-2.95ZM298.55 9.85L298.55 9.85Q297.5 9.85 297.05 9.47 296.6 9.1 296.6 8.1L296.6 8.1 296.6-23.5Q298.1-24.45 300-24.98 301.9-25.5 303.9-25.5L303.9-25.5Q306.4-25.5 308.23-24.63 310.05-23.75 311.05-21.48 312.05-19.2 312.05-15.1L312.05-15.1Q312.05-11.1 311.6-8.33 311.15-5.55 310.4-3.8 309.65-2.05 308.68-1.13 307.7-0.2 306.68 0.15 305.65 0.5 304.6 0.5L304.6 0.5Q303.25 0.5 302.23 0.1 301.2-0.3 300.65-0.9L300.65-0.9 300.65 9.5Q300.15 9.65 299.6 9.75 299.05 9.85 298.55 9.85ZM303.35-3.15L303.35-3.15Q303.95-3.15 304.65-3.5 305.35-3.85 306.03-5 306.7-6.15 307.13-8.45 307.55-10.75 307.55-14.65L307.55-14.65Q307.55-17.65 307.13-19.23 306.7-20.8 305.85-21.38 305-21.95 303.7-21.95L303.7-21.95Q302-21.95 300.65-21L300.65-21 300.65-4.8Q301.2-3.9 301.9-3.53 302.6-3.15 303.35-3.15ZM323.05 0.5L323.05 0.5Q321.35 0.5 319.88 0.03 318.4-0.45 317.33-1.7 316.25-2.95 315.68-5.25 315.1-7.55 315.1-11.2L315.1-11.2Q315.1-15.9 315.85-18.75 316.6-21.6 317.85-23.05 319.1-24.5 320.7-25 322.3-25.5 323.95-25.5L323.95-25.5Q327.1-25.5 328.7-23.5 330.3-21.5 330.3-17.45L330.3-17.45Q330.3-15.8 330.18-14.05 330.05-12.3 329.7-10.95L329.7-10.95Q328-10.6 325.9-10.45 323.8-10.3 321.9-10.23 320-10.15 318.78-10.15 317.55-10.15 317.55-10.15L317.55-10.15 317.6-13.45Q317.6-13.45 318.55-13.43 319.5-13.4 320.88-13.43 322.25-13.45 323.68-13.58 325.1-13.7 326.1-14L326.1-14Q326.25-14.7 326.3-15.5 326.35-16.3 326.35-17L326.35-17Q326.3-19.7 325.73-20.83 325.15-21.95 323.5-21.95L323.5-21.95Q322.65-21.95 321.88-21.48 321.1-21 320.5-19.83 319.9-18.65 319.58-16.6 319.25-14.55 319.25-11.35L319.25-11.35Q319.25-9 319.53-7.45 319.8-5.9 320.38-5.05 320.95-4.2 321.83-3.83 322.7-3.45 323.95-3.45L323.95-3.45Q325.45-3.45 326.93-3.85 328.4-4.25 329.6-5L329.6-5Q329.85-4.4 329.93-3.63 330-2.85 330-2.25L330-2.25Q330-1.5 329.05-0.85 328.1-0.2 326.53 0.15 324.95 0.5 323.05 0.5ZM333.85 0L333.85 0 333.85-23.25Q335.3-24.3 337.05-24.9 338.8-25.5 340.65-25.5L340.65-25.5Q342.6-25.5 343.37-24.98 344.15-24.45 344.15-23.4L344.15-23.4Q344.15-23 344.05-22.33 343.95-21.65 343.7-21L343.7-21Q343.15-21.3 342.55-21.45 341.95-21.6 341.3-21.6L341.3-21.6Q340.45-21.6 339.57-21.33 338.7-21.05 338-20.5L338-20.5 337.95-0.8Q337.95-0.4 337.77-0.25 337.6-0.1 336.75-0.05 335.9 0 333.85 0Z" opacity="1" transform="matrix(1,0,0,1,0,0)" fill="#106a46" class="slogan-text-1" data-fill-palette-color="secondary" id="text-1"></path></svg></g></svg></g></svg></g></svg></g><g transform="matrix(1,0,0,1,56.84352,93.8423822857277)"><svg viewBox="0 0 78.31296 58.16373310619875" height="58.16373310619875" width="78.31296"><g><svg xmlns="http://www.w3.org/2000/svg" xmlns:xlink="http://www.w3.org/1999/xlink" version="1.1" x="0" y="0" viewBox="7.5 18.435 85.001 63.131" enable-background="new 0 0 100 100" xml:space="preserve" height="58.16373310619875" width="78.31296" class="icon-icon-0" data-fill-palette-color="accent" id="icon-0"><g fill="#106a46" data-fill-palette-color="accent"><path d="M89.405 18.435H10.595c-1.706 0-3.095 1.389-3.095 3.095v56.941c0 1.706 1.389 3.095 3.095 3.095h78.811c1.707 0 3.095-1.389 3.095-3.095V77.14 32.027 21.529C92.5 19.823 91.112 18.435 89.405 18.435zM10.595 19.673h78.811c1.023 0 1.857 0.833 1.857 1.856v9.075c-0.068-0.01-0.136-0.021-0.207-0.021H8.951c-0.073 0-0.143 0.011-0.213 0.021v-9.076C8.738 20.506 9.571 19.673 10.595 19.673zM91.263 77.14c0 0.114-0.093 0.206-0.207 0.206H8.951c-0.113 0-0.206-0.092-0.206-0.206V32.027c0-0.113 0.093-0.206 0.206-0.206h82.104c0.114 0 0.207 0.093 0.207 0.206V77.14zM89.405 80.327H10.595c-0.992 0-1.798-0.784-1.848-1.764 0.067 0.01 0.135 0.021 0.204 0.021h82.104c0.068 0 0.133-0.011 0.197-0.02C91.202 79.544 90.396 80.327 89.405 80.327z" fill="#106a46" data-fill-palette-color="accent"></path><path d="M28.178 27.787c1.45 0 2.63-1.18 2.63-2.63 0-1.451-1.18-2.631-2.63-2.631s-2.631 1.18-2.631 2.631C25.547 26.607 26.728 27.787 28.178 27.787zM28.178 23.765c0.768 0 1.393 0.624 1.393 1.393 0 0.768-0.625 1.393-1.393 1.393-0.769 0-1.393-0.625-1.393-1.393C26.785 24.389 27.409 23.765 28.178 23.765z" fill="#106a46" data-fill-palette-color="accent"></path><path d="M21.458 27.787c1.451 0 2.631-1.18 2.631-2.63 0-1.451-1.18-2.631-2.631-2.631-1.45 0-2.63 1.18-2.63 2.631C18.828 26.607 20.008 27.787 21.458 27.787zM21.458 23.765c0.769 0 1.393 0.624 1.393 1.393 0 0.768-0.624 1.393-1.393 1.393-0.768 0-1.393-0.625-1.393-1.393C20.065 24.389 20.69 23.765 21.458 23.765z" fill="#106a46" data-fill-palette-color="accent"></path><path d="M14.738 27.787c1.451 0 2.631-1.18 2.631-2.63 0-1.451-1.18-2.631-2.631-2.631-1.45 0-2.63 1.18-2.63 2.631C12.108 26.607 13.288 27.787 14.738 27.787zM14.738 23.765c0.769 0 1.393 0.624 1.393 1.393 0 0.768-0.624 1.393-1.393 1.393-0.768 0-1.393-0.625-1.393-1.393C13.346 24.389 13.971 23.765 14.738 23.765z" fill="#106a46" data-fill-palette-color="accent"></path></g><path d="M26.598 65.915c-0.624 0-1.395-0.429-2.289-1.276-1.605-1.519-2.16-2.371-1.2-3.405l8.79-8.811-8.774-8.782c-0.676-0.676-0.57-1.195-0.401-1.57 0.242-0.544 0.814-1.117 1.479-1.781 0.829-0.829 1.542-1.542 2.241-1.542 0.342 0 0.679 0.172 1.033 0.526l11.769 11.755c0.311 0.254 0.521 0.659 0.564 1.134 0.048 0.537-0.134 1.152-0.452 1.533L27.53 65.514C27.243 65.787 26.941 65.915 26.598 65.915zM23.846 42.57c-0.009 0 0.027 0.068 0.154 0.194l9.211 9.221c0.241 0.242 0.241 0.633 0 0.875L24 62.093c-0.093 0.1-0.125 0.147-0.133 0.166 0.012 0.047 0.125 0.377 1.292 1.48 0.979 0.927 1.42 0.938 1.438 0.938v0.619l0.01-0.62c-0.001 0.001-0.001 0.001-0.001 0.001-0.003 0 0.02-0.012 0.061-0.05l11.777-11.767c0.061-0.077 0.151-0.357 0.131-0.589-0.013-0.145-0.063-0.246-0.162-0.328L26.601 40.148c-0.144-0.143-0.215-0.171-0.215-0.171-0.182 0.06-0.886 0.764-1.307 1.184-0.531 0.532-1.077 1.078-1.227 1.413C23.85 42.571 23.848 42.57 23.846 42.57z" fill="#106a46" data-fill-palette-color="accent"></path><path d="M55.834 71.436H40.498c-1.594 0-1.92-1.234-1.92-3.088s0.326-3.088 1.92-3.088h15.336c1.503 0 1.787 1.085 1.787 3.088C57.621 70.396 57.346 71.436 55.834 71.436zM40.498 66.497c-0.366 0-0.683 0-0.683 1.851s0.316 1.851 0.683 1.851h15.336c0.354 0 0.55 0 0.55-1.851s-0.219-1.851-0.55-1.851H40.498z" fill="#106a46" data-fill-palette-color="accent"></path></svg></g></svg></g><g></g></svg></g></svg></g></svg></g></svg></g><defs></defs></svg><rect width="320" height="360" fill="none" stroke="none" visibility="hidden"></rect></g></svg></g></svg>